%TF.GenerationSoftware,KiCad,Pcbnew,9.0.1*%
%TF.CreationDate,2025-06-25T00:30:31-04:00*%
%TF.ProjectId,DaughterBoard,44617567-6874-4657-9242-6f6172642e6b,rev?*%
%TF.SameCoordinates,Original*%
%TF.FileFunction,Copper,L2,Bot*%
%TF.FilePolarity,Positive*%
%FSLAX46Y46*%
G04 Gerber Fmt 4.6, Leading zero omitted, Abs format (unit mm)*
G04 Created by KiCad (PCBNEW 9.0.1) date 2025-06-25 00:30:31*
%MOMM*%
%LPD*%
G01*
G04 APERTURE LIST*
G04 Aperture macros list*
%AMRoundRect*
0 Rectangle with rounded corners*
0 $1 Rounding radius*
0 $2 $3 $4 $5 $6 $7 $8 $9 X,Y pos of 4 corners*
0 Add a 4 corners polygon primitive as box body*
4,1,4,$2,$3,$4,$5,$6,$7,$8,$9,$2,$3,0*
0 Add four circle primitives for the rounded corners*
1,1,$1+$1,$2,$3*
1,1,$1+$1,$4,$5*
1,1,$1+$1,$6,$7*
1,1,$1+$1,$8,$9*
0 Add four rect primitives between the rounded corners*
20,1,$1+$1,$2,$3,$4,$5,0*
20,1,$1+$1,$4,$5,$6,$7,0*
20,1,$1+$1,$6,$7,$8,$9,0*
20,1,$1+$1,$8,$9,$2,$3,0*%
G04 Aperture macros list end*
%TA.AperFunction,HeatsinkPad*%
%ADD10O,1.000000X2.100000*%
%TD*%
%TA.AperFunction,HeatsinkPad*%
%ADD11O,1.000000X1.800000*%
%TD*%
%TA.AperFunction,SMDPad,CuDef*%
%ADD12RoundRect,0.250000X0.750000X0.750000X-0.750000X0.750000X-0.750000X-0.750000X0.750000X-0.750000X0*%
%TD*%
%TA.AperFunction,SMDPad,CuDef*%
%ADD13RoundRect,0.225000X0.525000X1.775000X-0.525000X1.775000X-0.525000X-1.775000X0.525000X-1.775000X0*%
%TD*%
%TA.AperFunction,ViaPad*%
%ADD14C,0.609600*%
%TD*%
%TA.AperFunction,Conductor*%
%ADD15C,0.508000*%
%TD*%
%TA.AperFunction,Conductor*%
%ADD16C,0.200000*%
%TD*%
%TA.AperFunction,Conductor*%
%ADD17C,1.397000*%
%TD*%
G04 APERTURE END LIST*
D10*
%TO.P,J4,S1,SHIELD*%
%TO.N,GND*%
X99680000Y-71219400D03*
D11*
X99680000Y-75399400D03*
D10*
X108320000Y-71219400D03*
D11*
X108320000Y-75399400D03*
%TD*%
D12*
%TO.P,J3,1*%
%TO.N,SYSTEM_VDD*%
X109500000Y-73375000D03*
X109500000Y-67225000D03*
%TO.P,J3,2*%
%TO.N,SYSTEM_VSS*%
X98500000Y-73375000D03*
%TO.P,J3,3*%
X98500000Y-67225000D03*
%TD*%
D13*
%TO.P,J2,1,Pin_1*%
%TO.N,SYSTEM_VSS*%
X105270001Y-55300000D03*
%TO.P,J2,2,Pin_2*%
%TO.N,SYSTEM_VDD*%
X102729999Y-55300000D03*
%TD*%
D14*
%TO.N,VBUS*%
X101600000Y-65100000D03*
X101600000Y-69300000D03*
X106400000Y-69300000D03*
%TO.N,/D+*%
X103500000Y-69300000D03*
X104829800Y-69300000D03*
%TO.N,SYSTEM_VSS*%
X108900000Y-59800000D03*
X106700000Y-62500000D03*
X108900000Y-59000000D03*
X105800000Y-62500000D03*
%TD*%
D15*
%TO.N,VBUS*%
X105900000Y-67900000D02*
X106400000Y-68400000D01*
X106400000Y-68400000D02*
X106400000Y-69300000D01*
X101600000Y-69300000D02*
X101600000Y-65100000D01*
X102100000Y-67900000D02*
X105900000Y-67900000D01*
X101600000Y-69300000D02*
X101600000Y-68400000D01*
X101600000Y-68400000D02*
X102100000Y-67900000D01*
D16*
%TO.N,/D+*%
X104829800Y-69300000D02*
X103500000Y-69300000D01*
D17*
%TO.N,SYSTEM_VSS*%
X105800000Y-62500000D02*
X99400000Y-62500000D01*
X98100000Y-69000000D02*
X98100000Y-67625000D01*
X99400000Y-62500000D02*
X98100000Y-63800000D01*
X107900000Y-55300000D02*
X105270001Y-55300000D01*
X98100000Y-67625000D02*
X98500000Y-67225000D01*
X108900000Y-59000000D02*
X108900000Y-56300000D01*
X98500000Y-73375000D02*
X98100000Y-72975000D01*
X108900000Y-56300000D02*
X107900000Y-55300000D01*
X98100000Y-72975000D02*
X98100000Y-69000000D01*
X105800000Y-62500000D02*
X106700000Y-62500000D01*
X98100000Y-63800000D02*
X98100000Y-69000000D01*
X108900000Y-59800000D02*
X108900000Y-59000000D01*
%TO.N,SYSTEM_VDD*%
X109900000Y-67625000D02*
X109500000Y-67225000D01*
X109900000Y-69000000D02*
X109900000Y-63200000D01*
X109900000Y-72975000D02*
X109900000Y-69000000D01*
X106600000Y-59900000D02*
X103900000Y-59900000D01*
X109900000Y-63200000D02*
X106600000Y-59900000D01*
X102729999Y-58729999D02*
X102729999Y-55300000D01*
X109500000Y-73375000D02*
X109900000Y-72975000D01*
X109900000Y-69000000D02*
X109900000Y-67625000D01*
X103900000Y-59900000D02*
X102729999Y-58729999D01*
%TD*%
M02*
