%TF.GenerationSoftware,KiCad,Pcbnew,9.0.1*%
%TF.CreationDate,2025-06-25T00:30:31-04:00*%
%TF.ProjectId,DaughterBoard,44617567-6874-4657-9242-6f6172642e6b,rev?*%
%TF.SameCoordinates,Original*%
%TF.FileFunction,Copper,L1,Top*%
%TF.FilePolarity,Positive*%
%FSLAX46Y46*%
G04 Gerber Fmt 4.6, Leading zero omitted, Abs format (unit mm)*
G04 Created by KiCad (PCBNEW 9.0.1) date 2025-06-25 00:30:31*
%MOMM*%
%LPD*%
G01*
G04 APERTURE LIST*
G04 Aperture macros list*
%AMRoundRect*
0 Rectangle with rounded corners*
0 $1 Rounding radius*
0 $2 $3 $4 $5 $6 $7 $8 $9 X,Y pos of 4 corners*
0 Add a 4 corners polygon primitive as box body*
4,1,4,$2,$3,$4,$5,$6,$7,$8,$9,$2,$3,0*
0 Add four circle primitives for the rounded corners*
1,1,$1+$1,$2,$3*
1,1,$1+$1,$4,$5*
1,1,$1+$1,$6,$7*
1,1,$1+$1,$8,$9*
0 Add four rect primitives between the rounded corners*
20,1,$1+$1,$2,$3,$4,$5,0*
20,1,$1+$1,$4,$5,$6,$7,0*
20,1,$1+$1,$6,$7,$8,$9,0*
20,1,$1+$1,$8,$9,$2,$3,0*%
G04 Aperture macros list end*
%TA.AperFunction,SMDPad,CuDef*%
%ADD10RoundRect,0.150000X-0.150000X-0.425000X0.150000X-0.425000X0.150000X0.425000X-0.150000X0.425000X0*%
%TD*%
%TA.AperFunction,SMDPad,CuDef*%
%ADD11RoundRect,0.075000X-0.075000X-0.500000X0.075000X-0.500000X0.075000X0.500000X-0.075000X0.500000X0*%
%TD*%
%TA.AperFunction,HeatsinkPad*%
%ADD12O,1.000000X2.100000*%
%TD*%
%TA.AperFunction,HeatsinkPad*%
%ADD13O,1.000000X1.800000*%
%TD*%
%TA.AperFunction,SMDPad,CuDef*%
%ADD14RoundRect,0.225000X-0.525000X-1.775000X0.525000X-1.775000X0.525000X1.775000X-0.525000X1.775000X0*%
%TD*%
%TA.AperFunction,SMDPad,CuDef*%
%ADD15RoundRect,0.200000X-0.200000X-0.275000X0.200000X-0.275000X0.200000X0.275000X-0.200000X0.275000X0*%
%TD*%
%TA.AperFunction,SMDPad,CuDef*%
%ADD16RoundRect,0.200000X0.200000X0.275000X-0.200000X0.275000X-0.200000X-0.275000X0.200000X-0.275000X0*%
%TD*%
%TA.AperFunction,ViaPad*%
%ADD17C,0.609600*%
%TD*%
%TA.AperFunction,Conductor*%
%ADD18C,0.508000*%
%TD*%
%TA.AperFunction,Conductor*%
%ADD19C,0.635000*%
%TD*%
%TA.AperFunction,Conductor*%
%ADD20C,0.200000*%
%TD*%
%TA.AperFunction,Conductor*%
%ADD21C,1.397000*%
%TD*%
G04 APERTURE END LIST*
D10*
%TO.P,J4,A1,GND*%
%TO.N,GND*%
X100800000Y-70644400D03*
%TO.P,J4,A4,VBUS*%
%TO.N,VBUS*%
X101600000Y-70644400D03*
D11*
%TO.P,J4,A5,CC1*%
%TO.N,Net-(J4-CC1)*%
X102750000Y-70644401D03*
%TO.P,J4,A6,D+*%
%TO.N,/D+*%
X103750000Y-70644400D03*
%TO.P,J4,A7,D-*%
%TO.N,/D-*%
X104250000Y-70644400D03*
%TO.P,J4,A8,SBU1*%
%TO.N,unconnected-(J4-SBU1-PadA8)*%
X105250000Y-70644401D03*
D10*
%TO.P,J4,A9,VBUS*%
%TO.N,VBUS*%
X106400000Y-70644400D03*
%TO.P,J4,A12,GND*%
%TO.N,GND*%
X107200000Y-70644400D03*
%TO.P,J4,B1,GND*%
X107200000Y-70644400D03*
%TO.P,J4,B4,VBUS*%
%TO.N,VBUS*%
X106400000Y-70644400D03*
D11*
%TO.P,J4,B5,CC2*%
%TO.N,Net-(J4-CC2)*%
X105750000Y-70644400D03*
%TO.P,J4,B6,D+*%
%TO.N,/D+*%
X104750000Y-70644400D03*
%TO.P,J4,B7,D-*%
%TO.N,/D-*%
X103250000Y-70644400D03*
%TO.P,J4,B8,SBU2*%
%TO.N,unconnected-(J4-SBU2-PadB8)*%
X102250000Y-70644400D03*
D10*
%TO.P,J4,B9,VBUS*%
%TO.N,VBUS*%
X101600000Y-70644400D03*
%TO.P,J4,B12,GND*%
%TO.N,GND*%
X100800000Y-70644400D03*
D12*
%TO.P,J4,S1,SHIELD*%
X99680000Y-71219400D03*
D13*
X99680000Y-75399400D03*
D12*
X108320000Y-71219400D03*
D13*
X108320000Y-75399400D03*
%TD*%
D14*
%TO.P,J1,1,Pin_1*%
%TO.N,VBUS*%
X100190000Y-55300000D03*
%TO.P,J1,2,Pin_2*%
%TO.N,/D+*%
X102730000Y-55300000D03*
%TO.P,J1,3,Pin_3*%
%TO.N,/D-*%
X105270000Y-55300000D03*
%TO.P,J1,4,Pin_4*%
%TO.N,GND*%
X107810000Y-55300000D03*
%TD*%
D15*
%TO.P,R2,1*%
%TO.N,Net-(J4-CC2)*%
X105975000Y-68100000D03*
%TO.P,R2,2*%
%TO.N,GND*%
X107625000Y-68100000D03*
%TD*%
D16*
%TO.P,R1,1*%
%TO.N,Net-(J4-CC1)*%
X102525000Y-68100000D03*
%TO.P,R1,2*%
%TO.N,GND*%
X100875000Y-68100000D03*
%TD*%
D17*
%TO.N,VBUS*%
X101600000Y-65100000D03*
X101600000Y-69300000D03*
X106400000Y-69300000D03*
%TO.N,/D+*%
X103500000Y-69300000D03*
X104829800Y-69300000D03*
%TO.N,SYSTEM_VSS*%
X108900000Y-59800000D03*
X106700000Y-62500000D03*
X108900000Y-59000000D03*
X105800000Y-62500000D03*
%TD*%
D18*
%TO.N,VBUS*%
X101600000Y-65100000D02*
X100190000Y-63690000D01*
X101600000Y-70644400D02*
X101600000Y-69300000D01*
X100190000Y-63690000D02*
X100190000Y-55100000D01*
X106400000Y-70644400D02*
X106400000Y-69300000D01*
D19*
%TO.N,GND*%
X99755600Y-70644400D02*
X99700000Y-70700000D01*
D20*
%TO.N,/D-*%
X104250000Y-70644400D02*
X104250000Y-71450000D01*
X104100000Y-71600000D02*
X103400000Y-71600000D01*
X103400000Y-71600000D02*
X103250000Y-71450000D01*
X104250000Y-71450000D02*
X104100000Y-71600000D01*
X105270000Y-56330000D02*
X105270000Y-55100000D01*
X104250000Y-70644400D02*
X104225000Y-70619400D01*
X104225000Y-57375000D02*
X105270000Y-56330000D01*
X103250000Y-71450000D02*
X103250000Y-70644400D01*
X104225000Y-70619400D02*
X104225000Y-57375000D01*
%TO.N,/D+*%
X102730000Y-56330000D02*
X102730000Y-55100000D01*
X104829800Y-69300000D02*
X104825000Y-69304800D01*
X103775000Y-69575000D02*
X103775000Y-69975000D01*
X103775000Y-70619400D02*
X103750000Y-70644400D01*
X104750000Y-69425000D02*
X104750000Y-70644400D01*
X104800000Y-69425000D02*
X104750000Y-69425000D01*
X103775000Y-69975000D02*
X103775000Y-70619400D01*
X104825000Y-69400000D02*
X104800000Y-69425000D01*
X103775000Y-69975000D02*
X103775000Y-57375000D01*
X103775000Y-57375000D02*
X102730000Y-56330000D01*
X104825000Y-69304800D02*
X104825000Y-69400000D01*
D21*
%TO.N,SYSTEM_VSS*%
X108900000Y-59800000D02*
X108900000Y-61100000D01*
X105800000Y-62500000D02*
X107500000Y-62500000D01*
X107500000Y-62500000D02*
X108900000Y-61100000D01*
X108900000Y-61100000D02*
X108900000Y-59000000D01*
D20*
%TO.N,Net-(J4-CC1)*%
X102750000Y-68325000D02*
X102525000Y-68100000D01*
X102750000Y-70644401D02*
X102750000Y-68325000D01*
%TO.N,Net-(J4-CC2)*%
X105750000Y-70644400D02*
X105750000Y-68325000D01*
X105750000Y-68325000D02*
X105975000Y-68100000D01*
%TD*%
%TA.AperFunction,Conductor*%
%TO.N,GND*%
G36*
X99222814Y-53273713D02*
G01*
X99259359Y-53324013D01*
X99259359Y-53386187D01*
X99258660Y-53388259D01*
X99239016Y-53444400D01*
X99236300Y-53473364D01*
X99236300Y-57126636D01*
X99239016Y-57155600D01*
X99281699Y-57277581D01*
X99358440Y-57381560D01*
X99462419Y-57458301D01*
X99584400Y-57500984D01*
X99613364Y-57503700D01*
X99631700Y-57503700D01*
X99690831Y-57522913D01*
X99727376Y-57573213D01*
X99732300Y-57604300D01*
X99732300Y-63750260D01*
X99763493Y-63866669D01*
X99823747Y-63971032D01*
X99823749Y-63971035D01*
X100470509Y-64617795D01*
X101098734Y-65246020D01*
X101124771Y-65291119D01*
X101126150Y-65296269D01*
X101126151Y-65296271D01*
X101126153Y-65296274D01*
X101193099Y-65412226D01*
X101287774Y-65506901D01*
X101403726Y-65573847D01*
X101403728Y-65573848D01*
X101533049Y-65608499D01*
X101533053Y-65608499D01*
X101533055Y-65608500D01*
X101533057Y-65608500D01*
X101666943Y-65608500D01*
X101666945Y-65608500D01*
X101666947Y-65608499D01*
X101666950Y-65608499D01*
X101796270Y-65573848D01*
X101796271Y-65573848D01*
X101796271Y-65573847D01*
X101796274Y-65573847D01*
X101912226Y-65506901D01*
X102006901Y-65412226D01*
X102073847Y-65296274D01*
X102108500Y-65166945D01*
X102108500Y-65033055D01*
X102108499Y-65033053D01*
X102108499Y-65033049D01*
X102073848Y-64903729D01*
X102073848Y-64903728D01*
X102006900Y-64787773D01*
X101912226Y-64693099D01*
X101796271Y-64626151D01*
X101796269Y-64626150D01*
X101791119Y-64624771D01*
X101746020Y-64598734D01*
X100677165Y-63529879D01*
X100648939Y-63474481D01*
X100647700Y-63458744D01*
X100647700Y-57604300D01*
X100666913Y-57545169D01*
X100717213Y-57508624D01*
X100748300Y-57503700D01*
X100766631Y-57503700D01*
X100766636Y-57503700D01*
X100795600Y-57500984D01*
X100917581Y-57458301D01*
X101021560Y-57381560D01*
X101098301Y-57277581D01*
X101140984Y-57155600D01*
X101143700Y-57126636D01*
X101143700Y-53473364D01*
X101140984Y-53444400D01*
X101121361Y-53388323D01*
X101119967Y-53326168D01*
X101155374Y-53275060D01*
X101214060Y-53254525D01*
X101216317Y-53254500D01*
X101703683Y-53254500D01*
X101762814Y-53273713D01*
X101799359Y-53324013D01*
X101799359Y-53386187D01*
X101798660Y-53388259D01*
X101779016Y-53444400D01*
X101776300Y-53473364D01*
X101776300Y-57126636D01*
X101779016Y-57155600D01*
X101821699Y-57277581D01*
X101898440Y-57381560D01*
X102002419Y-57458301D01*
X102124400Y-57500984D01*
X102153364Y-57503700D01*
X102153369Y-57503700D01*
X103306631Y-57503700D01*
X103306636Y-57503700D01*
X103335600Y-57500984D01*
X103337472Y-57500328D01*
X103338726Y-57500300D01*
X103341577Y-57499678D01*
X103341698Y-57500233D01*
X103399627Y-57498931D01*
X103450737Y-57534335D01*
X103471275Y-57593019D01*
X103471300Y-57595282D01*
X103471300Y-68704058D01*
X103452087Y-68763189D01*
X103401787Y-68799734D01*
X103396737Y-68801230D01*
X103303729Y-68826151D01*
X103303728Y-68826151D01*
X103226010Y-68871023D01*
X103211195Y-68879577D01*
X103204601Y-68883384D01*
X103194083Y-68885619D01*
X103185387Y-68891938D01*
X103164358Y-68891938D01*
X103143785Y-68896311D01*
X103133963Y-68891938D01*
X103123213Y-68891938D01*
X103106200Y-68879577D01*
X103086986Y-68871023D01*
X103081609Y-68861711D01*
X103072913Y-68855393D01*
X103066414Y-68835394D01*
X103055898Y-68817179D01*
X103053700Y-68796262D01*
X103053700Y-68643267D01*
X103064665Y-68597595D01*
X103068771Y-68589536D01*
X103113727Y-68501305D01*
X103128700Y-68406770D01*
X103128700Y-67793230D01*
X103113727Y-67698695D01*
X103055671Y-67584753D01*
X102965247Y-67494329D01*
X102965244Y-67494327D01*
X102965243Y-67494326D01*
X102965244Y-67494326D01*
X102851308Y-67436274D01*
X102851303Y-67436272D01*
X102756774Y-67421300D01*
X102756770Y-67421300D01*
X102293230Y-67421300D01*
X102293225Y-67421300D01*
X102198696Y-67436272D01*
X102198691Y-67436274D01*
X102084756Y-67494326D01*
X101994326Y-67584756D01*
X101936274Y-67698691D01*
X101936272Y-67698696D01*
X101921300Y-67793225D01*
X101921300Y-68406774D01*
X101936272Y-68501303D01*
X101936274Y-68501308D01*
X101994326Y-68615243D01*
X101994327Y-68615244D01*
X101994329Y-68615247D01*
X102084753Y-68705671D01*
X102084755Y-68705672D01*
X102084756Y-68705673D01*
X102119030Y-68723136D01*
X102198695Y-68763727D01*
X102293226Y-68778699D01*
X102293228Y-68778700D01*
X102293230Y-68778700D01*
X102345700Y-68778700D01*
X102404831Y-68797913D01*
X102441376Y-68848213D01*
X102446300Y-68879300D01*
X102446300Y-69765100D01*
X102441376Y-69780254D01*
X102441376Y-69796187D01*
X102432010Y-69809077D01*
X102427087Y-69824231D01*
X102414196Y-69833596D01*
X102404831Y-69846487D01*
X102389677Y-69851410D01*
X102376787Y-69860776D01*
X102345700Y-69865700D01*
X102158300Y-69865700D01*
X102099169Y-69846487D01*
X102062624Y-69796187D01*
X102057700Y-69765100D01*
X102057700Y-69551196D01*
X102071178Y-69500895D01*
X102073847Y-69496274D01*
X102108500Y-69366945D01*
X102108500Y-69233055D01*
X102108499Y-69233053D01*
X102108499Y-69233049D01*
X102073848Y-69103729D01*
X102073848Y-69103728D01*
X102033876Y-69034495D01*
X102006901Y-68987774D01*
X101912226Y-68893099D01*
X101910215Y-68891938D01*
X101796271Y-68826151D01*
X101666950Y-68791500D01*
X101666945Y-68791500D01*
X101533055Y-68791500D01*
X101531144Y-68791500D01*
X101472013Y-68772287D01*
X101435468Y-68721987D01*
X101435468Y-68659813D01*
X101450201Y-68631162D01*
X101480921Y-68589536D01*
X101526123Y-68460355D01*
X101529000Y-68429679D01*
X101529000Y-68354000D01*
X101129000Y-68354000D01*
X101129000Y-68829000D01*
X101137695Y-68837695D01*
X101170065Y-68848213D01*
X101206610Y-68898513D01*
X101206610Y-68960687D01*
X101195603Y-68981606D01*
X101196396Y-68982064D01*
X101126151Y-69103728D01*
X101126151Y-69103729D01*
X101091500Y-69233049D01*
X101091500Y-69366950D01*
X101126151Y-69496270D01*
X101126152Y-69496272D01*
X101126153Y-69496274D01*
X101128821Y-69500895D01*
X101142300Y-69551196D01*
X101142300Y-69723033D01*
X101123087Y-69782164D01*
X101072787Y-69818709D01*
X101062573Y-69819513D01*
X101054000Y-69826835D01*
X101054000Y-71057269D01*
X101034787Y-71116400D01*
X100984487Y-71152945D01*
X100979438Y-71154441D01*
X100886323Y-71179391D01*
X100886320Y-71179392D01*
X100754178Y-71255685D01*
X100717735Y-71292129D01*
X100662337Y-71320355D01*
X100600929Y-71310629D01*
X100556965Y-71266665D01*
X100546000Y-71220994D01*
X100546000Y-70898400D01*
X100240000Y-70898400D01*
X100180869Y-70879187D01*
X100144324Y-70828887D01*
X100139400Y-70797800D01*
X100139400Y-70491000D01*
X100158613Y-70431869D01*
X100208913Y-70395324D01*
X100240000Y-70390400D01*
X100546000Y-70390400D01*
X100546000Y-69826835D01*
X100545999Y-69826835D01*
X100523600Y-69830383D01*
X100409578Y-69888480D01*
X100319081Y-69978977D01*
X100290419Y-70035230D01*
X100246455Y-70079194D01*
X100185046Y-70088919D01*
X100144894Y-70073204D01*
X100037149Y-70001212D01*
X99934000Y-69958485D01*
X99934000Y-70509339D01*
X99920060Y-70485195D01*
X99864205Y-70429340D01*
X99795796Y-70389844D01*
X99719496Y-70369400D01*
X99640504Y-70369400D01*
X99564204Y-70389844D01*
X99495795Y-70429340D01*
X99439940Y-70485195D01*
X99426000Y-70509339D01*
X99426000Y-69958486D01*
X99425999Y-69958485D01*
X99322850Y-70001212D01*
X99199354Y-70083728D01*
X99199353Y-70083730D01*
X99094330Y-70188753D01*
X99094328Y-70188754D01*
X99011816Y-70312242D01*
X99011812Y-70312250D01*
X98954976Y-70449463D01*
X98926000Y-70595138D01*
X98926000Y-70965400D01*
X99380000Y-70965400D01*
X99380000Y-71473400D01*
X98926000Y-71473400D01*
X98926000Y-71843661D01*
X98954976Y-71989336D01*
X99011812Y-72126549D01*
X99011816Y-72126557D01*
X99094328Y-72250045D01*
X99199354Y-72355071D01*
X99322842Y-72437583D01*
X99322850Y-72437587D01*
X99425999Y-72480313D01*
X99426000Y-72480313D01*
X99426000Y-71929460D01*
X99439940Y-71953605D01*
X99495795Y-72009460D01*
X99564204Y-72048956D01*
X99640504Y-72069400D01*
X99719496Y-72069400D01*
X99795796Y-72048956D01*
X99864205Y-72009460D01*
X99920060Y-71953605D01*
X99934000Y-71929460D01*
X99934000Y-72480313D01*
X100037149Y-72437587D01*
X100037157Y-72437583D01*
X100160645Y-72355071D01*
X100160647Y-72355070D01*
X100265670Y-72250047D01*
X100265671Y-72250045D01*
X100348183Y-72126557D01*
X100348187Y-72126549D01*
X100406916Y-71984768D01*
X100409299Y-71985755D01*
X100439107Y-71942846D01*
X100497818Y-71922384D01*
X100557343Y-71940339D01*
X100587072Y-71972661D01*
X100646285Y-72075221D01*
X100754178Y-72183114D01*
X100754177Y-72183114D01*
X100754179Y-72183115D01*
X100886322Y-72259408D01*
X100886323Y-72259408D01*
X100886325Y-72259409D01*
X101033702Y-72298899D01*
X101033704Y-72298899D01*
X101033707Y-72298900D01*
X101033709Y-72298900D01*
X101186291Y-72298900D01*
X101186293Y-72298900D01*
X101333678Y-72259408D01*
X101465821Y-72183115D01*
X101573715Y-72075221D01*
X101650008Y-71943078D01*
X101689500Y-71795693D01*
X101689500Y-71643107D01*
X101689499Y-71643105D01*
X101689499Y-71643101D01*
X101664482Y-71549736D01*
X101667736Y-71487647D01*
X101706864Y-71439329D01*
X101761654Y-71423099D01*
X101783569Y-71423099D01*
X101783569Y-71423098D01*
X101852319Y-71413083D01*
X101924763Y-71377667D01*
X101986321Y-71368958D01*
X102009579Y-71376018D01*
X102014766Y-71378308D01*
X102014768Y-71378310D01*
X102110086Y-71420397D01*
X102133385Y-71423100D01*
X102366614Y-71423099D01*
X102376740Y-71421924D01*
X102389907Y-71420398D01*
X102389908Y-71420397D01*
X102389914Y-71420397D01*
X102406481Y-71413082D01*
X102459365Y-71389732D01*
X102521218Y-71383423D01*
X102540634Y-71389732D01*
X102610086Y-71420398D01*
X102633385Y-71423101D01*
X102851185Y-71423100D01*
X102910316Y-71442313D01*
X102946861Y-71492612D01*
X102948357Y-71497663D01*
X102966994Y-71567220D01*
X102966996Y-71567225D01*
X103006977Y-71636474D01*
X103213525Y-71843022D01*
X103282774Y-71883003D01*
X103282780Y-71883006D01*
X103350881Y-71901252D01*
X103360017Y-71903700D01*
X103360018Y-71903700D01*
X104139982Y-71903700D01*
X104139983Y-71903700D01*
X104168775Y-71895985D01*
X104217219Y-71883006D01*
X104217221Y-71883004D01*
X104217224Y-71883004D01*
X104286476Y-71843021D01*
X104493021Y-71636476D01*
X104533004Y-71567224D01*
X104551642Y-71497661D01*
X104585503Y-71445519D01*
X104643547Y-71423237D01*
X104648778Y-71423099D01*
X104866614Y-71423099D01*
X104876740Y-71421924D01*
X104889907Y-71420398D01*
X104889908Y-71420397D01*
X104889914Y-71420397D01*
X104906481Y-71413082D01*
X104959365Y-71389732D01*
X105021218Y-71383423D01*
X105040634Y-71389732D01*
X105110086Y-71420398D01*
X105133385Y-71423101D01*
X105366614Y-71423100D01*
X105376740Y-71421925D01*
X105389907Y-71420399D01*
X105389908Y-71420398D01*
X105389914Y-71420398D01*
X105413425Y-71410017D01*
X105459367Y-71389732D01*
X105521220Y-71383423D01*
X105540635Y-71389732D01*
X105610083Y-71420396D01*
X105610086Y-71420397D01*
X105633385Y-71423100D01*
X105866614Y-71423099D01*
X105876740Y-71421924D01*
X105889907Y-71420398D01*
X105889907Y-71420397D01*
X105889914Y-71420397D01*
X105985232Y-71378310D01*
X105985234Y-71378307D01*
X105990420Y-71376018D01*
X106052273Y-71369709D01*
X106075233Y-71377666D01*
X106111714Y-71395500D01*
X106147678Y-71413082D01*
X106147679Y-71413082D01*
X106147681Y-71413083D01*
X106216431Y-71423100D01*
X106238344Y-71423099D01*
X106297474Y-71442310D01*
X106334021Y-71492608D01*
X106335518Y-71549736D01*
X106310500Y-71643101D01*
X106310500Y-71795697D01*
X106349990Y-71943074D01*
X106349992Y-71943079D01*
X106426285Y-72075221D01*
X106534178Y-72183114D01*
X106534177Y-72183114D01*
X106534179Y-72183115D01*
X106666322Y-72259408D01*
X106666323Y-72259408D01*
X106666325Y-72259409D01*
X106813702Y-72298899D01*
X106813704Y-72298899D01*
X106813707Y-72298900D01*
X106813709Y-72298900D01*
X106966291Y-72298900D01*
X106966293Y-72298900D01*
X107113678Y-72259408D01*
X107245821Y-72183115D01*
X107353715Y-72075221D01*
X107412929Y-71972658D01*
X107459131Y-71931059D01*
X107520964Y-71924559D01*
X107574809Y-71955646D01*
X107591615Y-71985376D01*
X107593084Y-71984768D01*
X107651812Y-72126549D01*
X107651816Y-72126557D01*
X107734328Y-72250045D01*
X107839354Y-72355071D01*
X107962842Y-72437583D01*
X107962850Y-72437587D01*
X108065999Y-72480313D01*
X108066000Y-72480313D01*
X108066000Y-71929460D01*
X108079940Y-71953605D01*
X108135795Y-72009460D01*
X108204204Y-72048956D01*
X108280504Y-72069400D01*
X108359496Y-72069400D01*
X108435796Y-72048956D01*
X108504205Y-72009460D01*
X108560060Y-71953605D01*
X108574000Y-71929460D01*
X108574000Y-72480313D01*
X108677149Y-72437587D01*
X108677157Y-72437583D01*
X108800645Y-72355071D01*
X108800647Y-72355070D01*
X108905670Y-72250047D01*
X108905671Y-72250045D01*
X108988183Y-72126557D01*
X108988187Y-72126549D01*
X109045023Y-71989336D01*
X109074000Y-71843661D01*
X109074000Y-71473400D01*
X108620000Y-71473400D01*
X108620000Y-70965400D01*
X109074000Y-70965400D01*
X109074000Y-70595138D01*
X109045023Y-70449463D01*
X108988187Y-70312250D01*
X108988183Y-70312242D01*
X108905671Y-70188754D01*
X108800645Y-70083728D01*
X108677149Y-70001212D01*
X108574000Y-69958485D01*
X108574000Y-70509339D01*
X108560060Y-70485195D01*
X108504205Y-70429340D01*
X108435796Y-70389844D01*
X108359496Y-70369400D01*
X108280504Y-70369400D01*
X108204204Y-70389844D01*
X108135795Y-70429340D01*
X108079940Y-70485195D01*
X108066000Y-70509339D01*
X108066000Y-69958486D01*
X108065999Y-69958485D01*
X107962850Y-70001212D01*
X107855105Y-70073204D01*
X107795265Y-70090080D01*
X107736933Y-70068560D01*
X107709579Y-70035229D01*
X107680917Y-69978976D01*
X107590421Y-69888480D01*
X107590422Y-69888480D01*
X107476399Y-69830383D01*
X107454000Y-69826835D01*
X107454000Y-71220994D01*
X107434787Y-71280125D01*
X107384487Y-71316670D01*
X107322313Y-71316670D01*
X107282265Y-71292129D01*
X107245821Y-71255685D01*
X107245822Y-71255685D01*
X107113679Y-71179392D01*
X107113676Y-71179391D01*
X107020562Y-71154441D01*
X106968419Y-71120578D01*
X106946138Y-71062534D01*
X106946000Y-71057269D01*
X106946000Y-70898400D01*
X106933164Y-70885564D01*
X106904938Y-70830166D01*
X106903699Y-70814437D01*
X106903699Y-70474369D01*
X106922912Y-70415239D01*
X106933165Y-70403234D01*
X106946000Y-70390399D01*
X106946000Y-69826835D01*
X106936485Y-69818709D01*
X106927213Y-69818709D01*
X106920646Y-69813938D01*
X106912628Y-69812668D01*
X106895968Y-69796008D01*
X106876913Y-69782164D01*
X106874404Y-69774444D01*
X106868664Y-69768704D01*
X106857700Y-69723033D01*
X106857700Y-69551196D01*
X106871178Y-69500895D01*
X106873847Y-69496274D01*
X106908500Y-69366945D01*
X106908500Y-69233055D01*
X106908499Y-69233053D01*
X106908499Y-69233049D01*
X106873848Y-69103729D01*
X106873848Y-69103728D01*
X106833876Y-69034495D01*
X106806901Y-68987774D01*
X106712226Y-68893099D01*
X106710215Y-68891938D01*
X106596271Y-68826151D01*
X106526787Y-68807534D01*
X106474644Y-68773672D01*
X106452362Y-68715628D01*
X106468453Y-68655572D01*
X106481681Y-68639236D01*
X106505671Y-68615247D01*
X106563727Y-68501305D01*
X106575072Y-68429679D01*
X106971000Y-68429679D01*
X106973876Y-68460355D01*
X107019078Y-68589536D01*
X107100347Y-68699652D01*
X107210463Y-68780921D01*
X107339644Y-68826123D01*
X107370320Y-68829000D01*
X107371000Y-68829000D01*
X107879000Y-68829000D01*
X107879680Y-68829000D01*
X107910355Y-68826123D01*
X108039536Y-68780921D01*
X108149652Y-68699652D01*
X108230921Y-68589536D01*
X108276123Y-68460355D01*
X108279000Y-68429679D01*
X108279000Y-68354000D01*
X107879000Y-68354000D01*
X107879000Y-68829000D01*
X107371000Y-68829000D01*
X107371000Y-68354000D01*
X106971000Y-68354000D01*
X106971000Y-68429679D01*
X106575072Y-68429679D01*
X106578700Y-68406770D01*
X106578700Y-67793230D01*
X106577191Y-67783700D01*
X106577191Y-67783699D01*
X106575072Y-67770320D01*
X106971000Y-67770320D01*
X106971000Y-67846000D01*
X107371000Y-67846000D01*
X107879000Y-67846000D01*
X108279000Y-67846000D01*
X108279000Y-67770320D01*
X108276123Y-67739644D01*
X108230921Y-67610463D01*
X108149652Y-67500347D01*
X108039536Y-67419078D01*
X107910355Y-67373876D01*
X107879680Y-67371000D01*
X107879000Y-67371000D01*
X107879000Y-67846000D01*
X107371000Y-67846000D01*
X107371000Y-67371000D01*
X107370320Y-67371000D01*
X107339644Y-67373876D01*
X107210463Y-67419078D01*
X107100347Y-67500347D01*
X107019078Y-67610463D01*
X106973876Y-67739644D01*
X106971000Y-67770320D01*
X106575072Y-67770320D01*
X106563727Y-67698697D01*
X106563727Y-67698696D01*
X106563727Y-67698695D01*
X106505671Y-67584753D01*
X106415247Y-67494329D01*
X106415244Y-67494327D01*
X106415243Y-67494326D01*
X106415244Y-67494326D01*
X106301308Y-67436274D01*
X106301303Y-67436272D01*
X106206774Y-67421300D01*
X106206770Y-67421300D01*
X105743230Y-67421300D01*
X105743225Y-67421300D01*
X105648696Y-67436272D01*
X105648691Y-67436274D01*
X105534756Y-67494326D01*
X105444326Y-67584756D01*
X105386274Y-67698691D01*
X105386272Y-67698696D01*
X105371300Y-67793225D01*
X105371300Y-68406774D01*
X105386272Y-68501303D01*
X105386273Y-68501305D01*
X105435335Y-68597595D01*
X105446300Y-68643267D01*
X105446300Y-68975364D01*
X105427087Y-69034495D01*
X105376787Y-69071040D01*
X105314613Y-69071040D01*
X105264313Y-69034495D01*
X105258579Y-69025665D01*
X105236704Y-68987778D01*
X105236701Y-68987774D01*
X105142026Y-68893099D01*
X105026071Y-68826151D01*
X104896750Y-68791500D01*
X104896745Y-68791500D01*
X104762855Y-68791500D01*
X104762853Y-68791500D01*
X104762847Y-68791501D01*
X104655336Y-68820308D01*
X104593247Y-68817054D01*
X104544929Y-68777926D01*
X104528700Y-68723136D01*
X104528700Y-62411141D01*
X104897800Y-62411141D01*
X104897800Y-62588858D01*
X104932471Y-62763164D01*
X105000479Y-62927348D01*
X105000481Y-62927352D01*
X105050182Y-63001734D01*
X105099214Y-63075117D01*
X105099216Y-63075119D01*
X105224881Y-63200784D01*
X105372648Y-63299519D01*
X105454743Y-63333524D01*
X105536835Y-63367528D01*
X105536836Y-63367528D01*
X105536838Y-63367529D01*
X105711141Y-63402200D01*
X105711142Y-63402200D01*
X107588858Y-63402200D01*
X107588859Y-63402200D01*
X107763162Y-63367529D01*
X107927352Y-63299519D01*
X108075119Y-63200785D01*
X109600785Y-61675119D01*
X109699519Y-61527352D01*
X109767529Y-61363162D01*
X109802200Y-61188859D01*
X109802200Y-61011141D01*
X109802200Y-58911141D01*
X109767529Y-58736838D01*
X109699519Y-58572648D01*
X109600784Y-58424881D01*
X109475119Y-58299216D01*
X109475117Y-58299214D01*
X109401734Y-58250182D01*
X109327352Y-58200481D01*
X109327349Y-58200479D01*
X109327348Y-58200479D01*
X109163164Y-58132471D01*
X109046960Y-58109357D01*
X108988859Y-58097800D01*
X108811141Y-58097800D01*
X108767565Y-58106467D01*
X108636835Y-58132471D01*
X108472651Y-58200479D01*
X108324882Y-58299214D01*
X108324881Y-58299216D01*
X108199216Y-58424881D01*
X108199214Y-58424882D01*
X108100479Y-58572651D01*
X108032471Y-58736835D01*
X107997800Y-58911141D01*
X107997800Y-60684626D01*
X107978587Y-60743757D01*
X107968335Y-60755761D01*
X107155761Y-61568335D01*
X107100363Y-61596561D01*
X107084626Y-61597800D01*
X105711141Y-61597800D01*
X105667565Y-61606467D01*
X105536835Y-61632471D01*
X105372651Y-61700479D01*
X105224882Y-61799214D01*
X105224881Y-61799216D01*
X105099216Y-61924881D01*
X105099214Y-61924882D01*
X105000479Y-62072651D01*
X104932471Y-62236835D01*
X104897800Y-62411141D01*
X104528700Y-62411141D01*
X104528700Y-57595282D01*
X104547913Y-57536151D01*
X104598213Y-57499606D01*
X104660387Y-57499606D01*
X104662445Y-57500300D01*
X104664400Y-57500984D01*
X104693364Y-57503700D01*
X104693369Y-57503700D01*
X105846631Y-57503700D01*
X105846636Y-57503700D01*
X105875600Y-57500984D01*
X105997581Y-57458301D01*
X106101560Y-57381560D01*
X106178301Y-57277581D01*
X106220984Y-57155600D01*
X106223700Y-57126636D01*
X106223700Y-56549402D01*
X106806000Y-56549402D01*
X106806000Y-57120819D01*
X106812133Y-57177865D01*
X106812133Y-57177867D01*
X106860266Y-57306919D01*
X106942813Y-57417186D01*
X107053080Y-57499733D01*
X107182133Y-57547866D01*
X107239180Y-57554000D01*
X108380820Y-57554000D01*
X108437865Y-57547866D01*
X108437867Y-57547866D01*
X108566919Y-57499733D01*
X108677186Y-57417186D01*
X108759733Y-57306919D01*
X108807866Y-57177867D01*
X108807866Y-57177865D01*
X108814000Y-57120819D01*
X108814000Y-56517200D01*
X108812130Y-56519070D01*
X108756732Y-56547296D01*
X108695324Y-56537570D01*
X108669860Y-56519070D01*
X107810000Y-55659210D01*
X106950140Y-56519070D01*
X106943439Y-56522484D01*
X106939091Y-56528620D01*
X106916233Y-56536345D01*
X106894742Y-56547296D01*
X106887315Y-56546119D01*
X106880191Y-56548528D01*
X106806000Y-56549402D01*
X106223700Y-56549402D01*
X106223700Y-55944789D01*
X106806000Y-55944789D01*
X107450790Y-55300000D01*
X108169210Y-55300000D01*
X108814000Y-55944790D01*
X108814000Y-54655210D01*
X108169210Y-55300000D01*
X107450790Y-55300000D01*
X106806000Y-54655210D01*
X106806000Y-55944789D01*
X106223700Y-55944789D01*
X106223700Y-53473364D01*
X106220984Y-53444400D01*
X106201361Y-53388323D01*
X106199967Y-53326168D01*
X106235374Y-53275060D01*
X106294060Y-53254525D01*
X106296317Y-53254500D01*
X106729766Y-53254500D01*
X106788897Y-53273713D01*
X106825442Y-53324013D01*
X106825442Y-53386187D01*
X106824023Y-53390256D01*
X106812133Y-53422132D01*
X106812133Y-53422134D01*
X106806000Y-53479180D01*
X106806000Y-54082799D01*
X106807870Y-54080930D01*
X106863268Y-54052704D01*
X106924676Y-54062430D01*
X106950140Y-54080930D01*
X107810000Y-54940790D01*
X108669860Y-54080930D01*
X108725258Y-54052704D01*
X108786666Y-54062430D01*
X108812130Y-54080930D01*
X108814000Y-54082800D01*
X108814000Y-53479180D01*
X108807866Y-53422134D01*
X108807866Y-53422132D01*
X108795977Y-53390256D01*
X108793314Y-53328139D01*
X108827671Y-53276320D01*
X108885926Y-53254592D01*
X108890234Y-53254500D01*
X110644900Y-53254500D01*
X110704031Y-53273713D01*
X110740576Y-53324013D01*
X110745500Y-53355100D01*
X110745500Y-77644900D01*
X110726287Y-77704031D01*
X110675987Y-77740576D01*
X110644900Y-77745500D01*
X97355100Y-77745500D01*
X97295969Y-77726287D01*
X97259424Y-77675987D01*
X97254500Y-77644900D01*
X97254500Y-74925138D01*
X98926000Y-74925138D01*
X98926000Y-75145400D01*
X99380000Y-75145400D01*
X99380000Y-75653400D01*
X98926000Y-75653400D01*
X98926000Y-75873661D01*
X98954976Y-76019336D01*
X99011812Y-76156549D01*
X99011816Y-76156557D01*
X99094328Y-76280045D01*
X99199354Y-76385071D01*
X99322842Y-76467583D01*
X99322850Y-76467587D01*
X99425999Y-76510313D01*
X99426000Y-76510313D01*
X99426000Y-75959460D01*
X99439940Y-75983605D01*
X99495795Y-76039460D01*
X99564204Y-76078956D01*
X99640504Y-76099400D01*
X99719496Y-76099400D01*
X99795796Y-76078956D01*
X99864205Y-76039460D01*
X99920060Y-75983605D01*
X99934000Y-75959460D01*
X99934000Y-76510313D01*
X100037149Y-76467587D01*
X100037157Y-76467583D01*
X100160645Y-76385071D01*
X100160647Y-76385070D01*
X100265670Y-76280047D01*
X100265671Y-76280045D01*
X100348183Y-76156557D01*
X100348187Y-76156549D01*
X100405023Y-76019336D01*
X100434000Y-75873661D01*
X100434000Y-75653400D01*
X99980000Y-75653400D01*
X99980000Y-75145400D01*
X100434000Y-75145400D01*
X100434000Y-74925138D01*
X107566000Y-74925138D01*
X107566000Y-75145400D01*
X108020000Y-75145400D01*
X108020000Y-75653400D01*
X107566000Y-75653400D01*
X107566000Y-75873661D01*
X107594976Y-76019336D01*
X107651812Y-76156549D01*
X107651816Y-76156557D01*
X107734328Y-76280045D01*
X107839354Y-76385071D01*
X107962842Y-76467583D01*
X107962850Y-76467587D01*
X108065999Y-76510313D01*
X108066000Y-76510313D01*
X108066000Y-75959460D01*
X108079940Y-75983605D01*
X108135795Y-76039460D01*
X108204204Y-76078956D01*
X108280504Y-76099400D01*
X108359496Y-76099400D01*
X108435796Y-76078956D01*
X108504205Y-76039460D01*
X108560060Y-75983605D01*
X108574000Y-75959460D01*
X108574000Y-76510313D01*
X108677149Y-76467587D01*
X108677157Y-76467583D01*
X108800645Y-76385071D01*
X108800647Y-76385070D01*
X108905670Y-76280047D01*
X108905671Y-76280045D01*
X108988183Y-76156557D01*
X108988187Y-76156549D01*
X109045023Y-76019336D01*
X109074000Y-75873661D01*
X109074000Y-75653400D01*
X108620000Y-75653400D01*
X108620000Y-75145400D01*
X109074000Y-75145400D01*
X109074000Y-74925138D01*
X109045023Y-74779463D01*
X108988187Y-74642250D01*
X108988183Y-74642242D01*
X108905671Y-74518754D01*
X108800645Y-74413728D01*
X108677149Y-74331212D01*
X108574000Y-74288485D01*
X108574000Y-74839339D01*
X108560060Y-74815195D01*
X108504205Y-74759340D01*
X108435796Y-74719844D01*
X108359496Y-74699400D01*
X108280504Y-74699400D01*
X108204204Y-74719844D01*
X108135795Y-74759340D01*
X108079940Y-74815195D01*
X108066000Y-74839339D01*
X108066000Y-74288486D01*
X108065999Y-74288485D01*
X107962850Y-74331212D01*
X107839354Y-74413728D01*
X107839353Y-74413730D01*
X107734330Y-74518753D01*
X107734328Y-74518754D01*
X107651816Y-74642242D01*
X107651812Y-74642250D01*
X107594976Y-74779463D01*
X107566000Y-74925138D01*
X100434000Y-74925138D01*
X100405023Y-74779463D01*
X100348187Y-74642250D01*
X100348183Y-74642242D01*
X100265671Y-74518754D01*
X100160645Y-74413728D01*
X100037149Y-74331212D01*
X99934000Y-74288485D01*
X99934000Y-74839339D01*
X99920060Y-74815195D01*
X99864205Y-74759340D01*
X99795796Y-74719844D01*
X99719496Y-74699400D01*
X99640504Y-74699400D01*
X99564204Y-74719844D01*
X99495795Y-74759340D01*
X99439940Y-74815195D01*
X99426000Y-74839339D01*
X99426000Y-74288486D01*
X99425999Y-74288485D01*
X99322850Y-74331212D01*
X99199354Y-74413728D01*
X99199353Y-74413730D01*
X99094330Y-74518753D01*
X99094328Y-74518754D01*
X99011816Y-74642242D01*
X99011812Y-74642250D01*
X98954976Y-74779463D01*
X98926000Y-74925138D01*
X97254500Y-74925138D01*
X97254500Y-73271141D01*
X102945500Y-73271141D01*
X102945500Y-73478858D01*
X102986024Y-73682588D01*
X103065511Y-73874487D01*
X103065512Y-73874489D01*
X103065514Y-73874493D01*
X103180917Y-74047204D01*
X103327796Y-74194083D01*
X103500507Y-74309486D01*
X103500512Y-74309488D01*
X103692411Y-74388975D01*
X103692412Y-74388975D01*
X103692414Y-74388976D01*
X103896141Y-74429500D01*
X103896142Y-74429500D01*
X104103858Y-74429500D01*
X104103859Y-74429500D01*
X104307586Y-74388976D01*
X104499493Y-74309486D01*
X104672204Y-74194083D01*
X104819083Y-74047204D01*
X104934486Y-73874493D01*
X105013976Y-73682586D01*
X105054500Y-73478859D01*
X105054500Y-73271141D01*
X105013976Y-73067414D01*
X104934486Y-72875507D01*
X104819083Y-72702796D01*
X104672204Y-72555917D01*
X104499493Y-72440514D01*
X104499489Y-72440512D01*
X104499487Y-72440511D01*
X104307588Y-72361024D01*
X104171768Y-72334008D01*
X104103859Y-72320500D01*
X103896141Y-72320500D01*
X103845209Y-72330631D01*
X103692411Y-72361024D01*
X103500512Y-72440511D01*
X103500508Y-72440513D01*
X103500507Y-72440514D01*
X103440944Y-72480313D01*
X103327797Y-72555916D01*
X103180916Y-72702797D01*
X103065511Y-72875512D01*
X102986024Y-73067411D01*
X102945500Y-73271141D01*
X97254500Y-73271141D01*
X97254500Y-68429679D01*
X100221000Y-68429679D01*
X100223876Y-68460355D01*
X100269078Y-68589536D01*
X100350347Y-68699652D01*
X100460463Y-68780921D01*
X100589644Y-68826123D01*
X100620320Y-68829000D01*
X100621000Y-68829000D01*
X100621000Y-68354000D01*
X100221000Y-68354000D01*
X100221000Y-68429679D01*
X97254500Y-68429679D01*
X97254500Y-67770320D01*
X100221000Y-67770320D01*
X100221000Y-67846000D01*
X100621000Y-67846000D01*
X101129000Y-67846000D01*
X101529000Y-67846000D01*
X101529000Y-67770320D01*
X101526123Y-67739644D01*
X101480921Y-67610463D01*
X101399652Y-67500347D01*
X101289536Y-67419078D01*
X101160355Y-67373876D01*
X101129680Y-67371000D01*
X101129000Y-67371000D01*
X101129000Y-67846000D01*
X100621000Y-67846000D01*
X100621000Y-67371000D01*
X100620320Y-67371000D01*
X100589644Y-67373876D01*
X100460463Y-67419078D01*
X100350347Y-67500347D01*
X100269078Y-67610463D01*
X100223876Y-67739644D01*
X100221000Y-67770320D01*
X97254500Y-67770320D01*
X97254500Y-53355100D01*
X97273713Y-53295969D01*
X97324013Y-53259424D01*
X97355100Y-53254500D01*
X99163683Y-53254500D01*
X99222814Y-53273713D01*
G37*
%TD.AperFunction*%
%TD*%
M02*
