%TF.GenerationSoftware,KiCad,Pcbnew,9.0.1*%
%TF.CreationDate,2025-06-25T00:30:31-04:00*%
%TF.ProjectId,DaughterBoard,44617567-6874-4657-9242-6f6172642e6b,rev?*%
%TF.SameCoordinates,Original*%
%TF.FileFunction,Legend,Bot*%
%TF.FilePolarity,Positive*%
%FSLAX46Y46*%
G04 Gerber Fmt 4.6, Leading zero omitted, Abs format (unit mm)*
G04 Created by KiCad (PCBNEW 9.0.1) date 2025-06-25 00:30:31*
%MOMM*%
%LPD*%
G01*
G04 APERTURE LIST*
%ADD10C,0.127000*%
%ADD11C,0.150000*%
%ADD12C,0.120000*%
G04 APERTURE END LIST*
D10*
X105043079Y-63438077D02*
X105012840Y-63347363D01*
X105012840Y-63347363D02*
X105012840Y-63196172D01*
X105012840Y-63196172D02*
X105043079Y-63135696D01*
X105043079Y-63135696D02*
X105073317Y-63105458D01*
X105073317Y-63105458D02*
X105133793Y-63075220D01*
X105133793Y-63075220D02*
X105194269Y-63075220D01*
X105194269Y-63075220D02*
X105254745Y-63105458D01*
X105254745Y-63105458D02*
X105284983Y-63135696D01*
X105284983Y-63135696D02*
X105315221Y-63196172D01*
X105315221Y-63196172D02*
X105345459Y-63317125D01*
X105345459Y-63317125D02*
X105375698Y-63377601D01*
X105375698Y-63377601D02*
X105405936Y-63407839D01*
X105405936Y-63407839D02*
X105466412Y-63438077D01*
X105466412Y-63438077D02*
X105526888Y-63438077D01*
X105526888Y-63438077D02*
X105587364Y-63407839D01*
X105587364Y-63407839D02*
X105617602Y-63377601D01*
X105617602Y-63377601D02*
X105647840Y-63317125D01*
X105647840Y-63317125D02*
X105647840Y-63165934D01*
X105647840Y-63165934D02*
X105617602Y-63075220D01*
X105315221Y-62682125D02*
X105012840Y-62682125D01*
X105647840Y-62893791D02*
X105315221Y-62682125D01*
X105315221Y-62682125D02*
X105647840Y-62470458D01*
X105043079Y-62289029D02*
X105012840Y-62198315D01*
X105012840Y-62198315D02*
X105012840Y-62047124D01*
X105012840Y-62047124D02*
X105043079Y-61986648D01*
X105043079Y-61986648D02*
X105073317Y-61956410D01*
X105073317Y-61956410D02*
X105133793Y-61926172D01*
X105133793Y-61926172D02*
X105194269Y-61926172D01*
X105194269Y-61926172D02*
X105254745Y-61956410D01*
X105254745Y-61956410D02*
X105284983Y-61986648D01*
X105284983Y-61986648D02*
X105315221Y-62047124D01*
X105315221Y-62047124D02*
X105345459Y-62168077D01*
X105345459Y-62168077D02*
X105375698Y-62228553D01*
X105375698Y-62228553D02*
X105405936Y-62258791D01*
X105405936Y-62258791D02*
X105466412Y-62289029D01*
X105466412Y-62289029D02*
X105526888Y-62289029D01*
X105526888Y-62289029D02*
X105587364Y-62258791D01*
X105587364Y-62258791D02*
X105617602Y-62228553D01*
X105617602Y-62228553D02*
X105647840Y-62168077D01*
X105647840Y-62168077D02*
X105647840Y-62016886D01*
X105647840Y-62016886D02*
X105617602Y-61926172D01*
X105647840Y-61744743D02*
X105647840Y-61381886D01*
X105012840Y-61563315D02*
X105647840Y-61563315D01*
X105345459Y-61170219D02*
X105345459Y-60958552D01*
X105012840Y-60867838D02*
X105012840Y-61170219D01*
X105012840Y-61170219D02*
X105647840Y-61170219D01*
X105647840Y-61170219D02*
X105647840Y-60867838D01*
X105012840Y-60595695D02*
X105647840Y-60595695D01*
X105647840Y-60595695D02*
X105194269Y-60384028D01*
X105194269Y-60384028D02*
X105647840Y-60172362D01*
X105647840Y-60172362D02*
X105012840Y-60172362D01*
X105647840Y-59476885D02*
X105012840Y-59265219D01*
X105012840Y-59265219D02*
X105647840Y-59053552D01*
X105043079Y-58872123D02*
X105012840Y-58781409D01*
X105012840Y-58781409D02*
X105012840Y-58630218D01*
X105012840Y-58630218D02*
X105043079Y-58569742D01*
X105043079Y-58569742D02*
X105073317Y-58539504D01*
X105073317Y-58539504D02*
X105133793Y-58509266D01*
X105133793Y-58509266D02*
X105194269Y-58509266D01*
X105194269Y-58509266D02*
X105254745Y-58539504D01*
X105254745Y-58539504D02*
X105284983Y-58569742D01*
X105284983Y-58569742D02*
X105315221Y-58630218D01*
X105315221Y-58630218D02*
X105345459Y-58751171D01*
X105345459Y-58751171D02*
X105375698Y-58811647D01*
X105375698Y-58811647D02*
X105405936Y-58841885D01*
X105405936Y-58841885D02*
X105466412Y-58872123D01*
X105466412Y-58872123D02*
X105526888Y-58872123D01*
X105526888Y-58872123D02*
X105587364Y-58841885D01*
X105587364Y-58841885D02*
X105617602Y-58811647D01*
X105617602Y-58811647D02*
X105647840Y-58751171D01*
X105647840Y-58751171D02*
X105647840Y-58599980D01*
X105647840Y-58599980D02*
X105617602Y-58509266D01*
X105043079Y-58267361D02*
X105012840Y-58176647D01*
X105012840Y-58176647D02*
X105012840Y-58025456D01*
X105012840Y-58025456D02*
X105043079Y-57964980D01*
X105043079Y-57964980D02*
X105073317Y-57934742D01*
X105073317Y-57934742D02*
X105133793Y-57904504D01*
X105133793Y-57904504D02*
X105194269Y-57904504D01*
X105194269Y-57904504D02*
X105254745Y-57934742D01*
X105254745Y-57934742D02*
X105284983Y-57964980D01*
X105284983Y-57964980D02*
X105315221Y-58025456D01*
X105315221Y-58025456D02*
X105345459Y-58146409D01*
X105345459Y-58146409D02*
X105375698Y-58206885D01*
X105375698Y-58206885D02*
X105405936Y-58237123D01*
X105405936Y-58237123D02*
X105466412Y-58267361D01*
X105466412Y-58267361D02*
X105526888Y-58267361D01*
X105526888Y-58267361D02*
X105587364Y-58237123D01*
X105587364Y-58237123D02*
X105617602Y-58206885D01*
X105617602Y-58206885D02*
X105647840Y-58146409D01*
X105647840Y-58146409D02*
X105647840Y-57995218D01*
X105647840Y-57995218D02*
X105617602Y-57904504D01*
X102543079Y-63498553D02*
X102512840Y-63407839D01*
X102512840Y-63407839D02*
X102512840Y-63256648D01*
X102512840Y-63256648D02*
X102543079Y-63196172D01*
X102543079Y-63196172D02*
X102573317Y-63165934D01*
X102573317Y-63165934D02*
X102633793Y-63135696D01*
X102633793Y-63135696D02*
X102694269Y-63135696D01*
X102694269Y-63135696D02*
X102754745Y-63165934D01*
X102754745Y-63165934D02*
X102784983Y-63196172D01*
X102784983Y-63196172D02*
X102815221Y-63256648D01*
X102815221Y-63256648D02*
X102845459Y-63377601D01*
X102845459Y-63377601D02*
X102875698Y-63438077D01*
X102875698Y-63438077D02*
X102905936Y-63468315D01*
X102905936Y-63468315D02*
X102966412Y-63498553D01*
X102966412Y-63498553D02*
X103026888Y-63498553D01*
X103026888Y-63498553D02*
X103087364Y-63468315D01*
X103087364Y-63468315D02*
X103117602Y-63438077D01*
X103117602Y-63438077D02*
X103147840Y-63377601D01*
X103147840Y-63377601D02*
X103147840Y-63226410D01*
X103147840Y-63226410D02*
X103117602Y-63135696D01*
X102815221Y-62742601D02*
X102512840Y-62742601D01*
X103147840Y-62954267D02*
X102815221Y-62742601D01*
X102815221Y-62742601D02*
X103147840Y-62530934D01*
X102543079Y-62349505D02*
X102512840Y-62258791D01*
X102512840Y-62258791D02*
X102512840Y-62107600D01*
X102512840Y-62107600D02*
X102543079Y-62047124D01*
X102543079Y-62047124D02*
X102573317Y-62016886D01*
X102573317Y-62016886D02*
X102633793Y-61986648D01*
X102633793Y-61986648D02*
X102694269Y-61986648D01*
X102694269Y-61986648D02*
X102754745Y-62016886D01*
X102754745Y-62016886D02*
X102784983Y-62047124D01*
X102784983Y-62047124D02*
X102815221Y-62107600D01*
X102815221Y-62107600D02*
X102845459Y-62228553D01*
X102845459Y-62228553D02*
X102875698Y-62289029D01*
X102875698Y-62289029D02*
X102905936Y-62319267D01*
X102905936Y-62319267D02*
X102966412Y-62349505D01*
X102966412Y-62349505D02*
X103026888Y-62349505D01*
X103026888Y-62349505D02*
X103087364Y-62319267D01*
X103087364Y-62319267D02*
X103117602Y-62289029D01*
X103117602Y-62289029D02*
X103147840Y-62228553D01*
X103147840Y-62228553D02*
X103147840Y-62077362D01*
X103147840Y-62077362D02*
X103117602Y-61986648D01*
X103147840Y-61805219D02*
X103147840Y-61442362D01*
X102512840Y-61623791D02*
X103147840Y-61623791D01*
X102845459Y-61230695D02*
X102845459Y-61019028D01*
X102512840Y-60928314D02*
X102512840Y-61230695D01*
X102512840Y-61230695D02*
X103147840Y-61230695D01*
X103147840Y-61230695D02*
X103147840Y-60928314D01*
X102512840Y-60656171D02*
X103147840Y-60656171D01*
X103147840Y-60656171D02*
X102694269Y-60444504D01*
X102694269Y-60444504D02*
X103147840Y-60232838D01*
X103147840Y-60232838D02*
X102512840Y-60232838D01*
X103147840Y-59537361D02*
X102512840Y-59325695D01*
X102512840Y-59325695D02*
X103147840Y-59114028D01*
X102512840Y-58902361D02*
X103147840Y-58902361D01*
X103147840Y-58902361D02*
X103147840Y-58751171D01*
X103147840Y-58751171D02*
X103117602Y-58660456D01*
X103117602Y-58660456D02*
X103057126Y-58599980D01*
X103057126Y-58599980D02*
X102996650Y-58569742D01*
X102996650Y-58569742D02*
X102875698Y-58539504D01*
X102875698Y-58539504D02*
X102784983Y-58539504D01*
X102784983Y-58539504D02*
X102664031Y-58569742D01*
X102664031Y-58569742D02*
X102603555Y-58599980D01*
X102603555Y-58599980D02*
X102543079Y-58660456D01*
X102543079Y-58660456D02*
X102512840Y-58751171D01*
X102512840Y-58751171D02*
X102512840Y-58902361D01*
X102512840Y-58267361D02*
X103147840Y-58267361D01*
X103147840Y-58267361D02*
X103147840Y-58116171D01*
X103147840Y-58116171D02*
X103117602Y-58025456D01*
X103117602Y-58025456D02*
X103057126Y-57964980D01*
X103057126Y-57964980D02*
X102996650Y-57934742D01*
X102996650Y-57934742D02*
X102875698Y-57904504D01*
X102875698Y-57904504D02*
X102784983Y-57904504D01*
X102784983Y-57904504D02*
X102664031Y-57934742D01*
X102664031Y-57934742D02*
X102603555Y-57964980D01*
X102603555Y-57964980D02*
X102543079Y-58025456D01*
X102543079Y-58025456D02*
X102512840Y-58116171D01*
X102512840Y-58116171D02*
X102512840Y-58267361D01*
D11*
X104933333Y-64754819D02*
X104933333Y-65469104D01*
X104933333Y-65469104D02*
X104980952Y-65611961D01*
X104980952Y-65611961D02*
X105076190Y-65707200D01*
X105076190Y-65707200D02*
X105219047Y-65754819D01*
X105219047Y-65754819D02*
X105314285Y-65754819D01*
X104552380Y-64754819D02*
X103933333Y-64754819D01*
X103933333Y-64754819D02*
X104266666Y-65135771D01*
X104266666Y-65135771D02*
X104123809Y-65135771D01*
X104123809Y-65135771D02*
X104028571Y-65183390D01*
X104028571Y-65183390D02*
X103980952Y-65231009D01*
X103980952Y-65231009D02*
X103933333Y-65326247D01*
X103933333Y-65326247D02*
X103933333Y-65564342D01*
X103933333Y-65564342D02*
X103980952Y-65659580D01*
X103980952Y-65659580D02*
X104028571Y-65707200D01*
X104028571Y-65707200D02*
X104123809Y-65754819D01*
X104123809Y-65754819D02*
X104409523Y-65754819D01*
X104409523Y-65754819D02*
X104504761Y-65707200D01*
X104504761Y-65707200D02*
X104552380Y-65659580D01*
D10*
X104347840Y-55511666D02*
X103894269Y-55511666D01*
X103894269Y-55511666D02*
X103803555Y-55541905D01*
X103803555Y-55541905D02*
X103743079Y-55602381D01*
X103743079Y-55602381D02*
X103712840Y-55693095D01*
X103712840Y-55693095D02*
X103712840Y-55753571D01*
X104287364Y-55239523D02*
X104317602Y-55209285D01*
X104317602Y-55209285D02*
X104347840Y-55148809D01*
X104347840Y-55148809D02*
X104347840Y-54997618D01*
X104347840Y-54997618D02*
X104317602Y-54937142D01*
X104317602Y-54937142D02*
X104287364Y-54906904D01*
X104287364Y-54906904D02*
X104226888Y-54876666D01*
X104226888Y-54876666D02*
X104166412Y-54876666D01*
X104166412Y-54876666D02*
X104075698Y-54906904D01*
X104075698Y-54906904D02*
X103712840Y-55269761D01*
X103712840Y-55269761D02*
X103712840Y-54876666D01*
D12*
%TO.C,J3*%
X99400000Y-63575000D02*
X99400000Y-65965000D01*
X99400000Y-63575000D02*
X102400000Y-63575000D01*
X99400000Y-68485000D02*
X99400000Y-72115000D01*
X102400000Y-63575000D02*
X102400000Y-64275000D01*
X102400000Y-64275000D02*
X109300000Y-64275000D01*
X108600000Y-68505000D02*
X108600000Y-72115000D01*
X109300000Y-65965000D02*
X109300000Y-64275000D01*
X110760000Y-66290000D02*
X110760000Y-68160000D01*
X110760000Y-72440000D02*
X110760000Y-74310000D01*
%TD*%
M02*
