%TF.GenerationSoftware,KiCad,Pcbnew,9.0.1*%
%TF.CreationDate,2025-06-19T14:55:28-04:00*%
%TF.ProjectId,Header,48656164-6572-42e6-9b69-6361645f7063,rev?*%
%TF.SameCoordinates,Original*%
%TF.FileFunction,Copper,L2,Bot*%
%TF.FilePolarity,Positive*%
%FSLAX46Y46*%
G04 Gerber Fmt 4.6, Leading zero omitted, Abs format (unit mm)*
G04 Created by KiCad (PCBNEW 9.0.1) date 2025-06-19 14:55:28*
%MOMM*%
%LPD*%
G01*
G04 APERTURE LIST*
G04 Aperture macros list*
%AMRoundRect*
0 Rectangle with rounded corners*
0 $1 Rounding radius*
0 $2 $3 $4 $5 $6 $7 $8 $9 X,Y pos of 4 corners*
0 Add a 4 corners polygon primitive as box body*
4,1,4,$2,$3,$4,$5,$6,$7,$8,$9,$2,$3,0*
0 Add four circle primitives for the rounded corners*
1,1,$1+$1,$2,$3*
1,1,$1+$1,$4,$5*
1,1,$1+$1,$6,$7*
1,1,$1+$1,$8,$9*
0 Add four rect primitives between the rounded corners*
20,1,$1+$1,$2,$3,$4,$5,0*
20,1,$1+$1,$4,$5,$6,$7,0*
20,1,$1+$1,$6,$7,$8,$9,0*
20,1,$1+$1,$8,$9,$2,$3,0*%
G04 Aperture macros list end*
%TA.AperFunction,ComponentPad*%
%ADD10R,1.700000X1.700000*%
%TD*%
%TA.AperFunction,ComponentPad*%
%ADD11C,1.700000*%
%TD*%
%TA.AperFunction,SMDPad,CuDef*%
%ADD12RoundRect,0.250000X0.300000X0.475000X-0.300000X0.475000X-0.300000X-0.475000X0.300000X-0.475000X0*%
%TD*%
%TA.AperFunction,SMDPad,CuDef*%
%ADD13RoundRect,0.250000X0.425000X1.200000X-0.425000X1.200000X-0.425000X-1.200000X0.425000X-1.200000X0*%
%TD*%
%TA.AperFunction,ComponentPad*%
%ADD14C,3.800000*%
%TD*%
%TA.AperFunction,ViaPad*%
%ADD15C,0.609600*%
%TD*%
%TA.AperFunction,Conductor*%
%ADD16C,1.016000*%
%TD*%
%TA.AperFunction,Conductor*%
%ADD17C,0.200000*%
%TD*%
%TA.AperFunction,Conductor*%
%ADD18C,0.635000*%
%TD*%
G04 APERTURE END LIST*
D10*
%TO.P,J1,1,Pin_1*%
%TO.N,VBUS*%
X133604000Y-81788000D03*
D11*
%TO.P,J1,2,Pin_2*%
%TO.N,/D+*%
X136144000Y-81788000D03*
%TO.P,J1,3,Pin_3*%
%TO.N,/D-*%
X138683999Y-81788000D03*
%TO.P,J1,4,Pin_4*%
%TO.N,GND*%
X141224000Y-81788000D03*
%TD*%
D12*
%TO.P,J4,1,Pin_1*%
%TO.N,SYSTEM_VSS*%
X119694200Y-79723400D03*
%TO.P,J4,2,Pin_2*%
%TO.N,SYSTEM_VDD*%
X117694200Y-79723400D03*
D13*
%TO.P,J4,MP,MountPin*%
%TO.N,GND*%
X122589200Y-85718399D03*
X114799200Y-85718399D03*
%TD*%
D12*
%TO.P,J3,1,Pin_1*%
%TO.N,GND*%
X160988000Y-79723400D03*
%TO.P,J3,2,Pin_2*%
%TO.N,/D-*%
X158988000Y-79723400D03*
%TO.P,J3,3,Pin_3*%
%TO.N,/D+*%
X156988000Y-79723400D03*
%TO.P,J3,4,Pin_4*%
%TO.N,VBUS*%
X154988000Y-79723400D03*
D13*
%TO.P,J3,MP,MountPin*%
%TO.N,GND*%
X163883000Y-85718400D03*
X152093000Y-85718400D03*
%TD*%
D10*
%TO.P,J2,1,Pin_1*%
%TO.N,SYSTEM_VDD*%
X136134000Y-84328000D03*
D11*
%TO.P,J2,2,Pin_2*%
%TO.N,SYSTEM_VSS*%
X138674000Y-84328000D03*
%TD*%
D14*
%TO.P,H7,1,1*%
%TO.N,GND*%
X126914000Y-83058000D03*
X147914000Y-83058000D03*
%TD*%
D15*
%TO.N,GND*%
X114799200Y-85718399D03*
X114799200Y-84836000D03*
%TO.N,SYSTEM_VSS*%
X119694200Y-81797400D03*
X119694200Y-80772000D03*
%TO.N,VBUS*%
X154988000Y-79723400D03*
%TO.N,GND*%
X160985200Y-81203800D03*
%TD*%
D16*
%TO.N,SYSTEM_VDD*%
X117694200Y-79723400D02*
X117694200Y-82413600D01*
X117694200Y-82413600D02*
X118839999Y-83559399D01*
X118839999Y-83559399D02*
X123465979Y-83559399D01*
X135483600Y-86156800D02*
X136134000Y-85506400D01*
X136134000Y-85506400D02*
X136134000Y-84328000D01*
X123465979Y-83559399D02*
X126063380Y-86156800D01*
X126063380Y-86156800D02*
X135483600Y-86156800D01*
D17*
%TO.N,/D+*%
X156988000Y-79898400D02*
X157763000Y-80673400D01*
X137188999Y-80743001D02*
X136144000Y-81788000D01*
X157763000Y-81313802D02*
X156946822Y-82129980D01*
X157763000Y-80673400D02*
X157763000Y-81313802D01*
X156946822Y-82129980D02*
X153110978Y-82129980D01*
X156988000Y-79723400D02*
X156988000Y-79898400D01*
X153110978Y-82129980D02*
X150584598Y-79603600D01*
X150584598Y-79603600D02*
X137832402Y-79603600D01*
X137832402Y-79603600D02*
X137188999Y-80247003D01*
X137188999Y-80247003D02*
X137188999Y-80743001D01*
%TO.N,/D-*%
X158988000Y-79723400D02*
X158988000Y-79898400D01*
X158213000Y-80673400D02*
X158213000Y-81500198D01*
X158213000Y-81500198D02*
X157133218Y-82579980D01*
X157133218Y-82579980D02*
X152924582Y-82579980D01*
X158988000Y-79898400D02*
X158213000Y-80673400D01*
X137639001Y-80433397D02*
X137639001Y-80743001D01*
X152924582Y-82579980D02*
X150354602Y-80010000D01*
X150354602Y-80010000D02*
X138062398Y-80010000D01*
X138062398Y-80010000D02*
X137639001Y-80433397D01*
X137639001Y-80743001D02*
X138683999Y-81787999D01*
X138683999Y-81787999D02*
X138683999Y-81788000D01*
D16*
%TO.N,SYSTEM_VSS*%
X119694200Y-81797400D02*
X119694200Y-80772000D01*
X119694200Y-80772000D02*
X119694200Y-79723400D01*
D17*
%TO.N,GND*%
X160988000Y-81201000D02*
X160985200Y-81203800D01*
D18*
X160988000Y-79723400D02*
X160988000Y-81201000D01*
%TD*%
%TA.AperFunction,Conductor*%
%TO.N,GND*%
G36*
X116942462Y-78948713D02*
G01*
X116979007Y-78999013D01*
X116979007Y-79061187D01*
X116978286Y-79063325D01*
X116943374Y-79163099D01*
X116940501Y-79193744D01*
X116940500Y-79193752D01*
X116940500Y-80253044D01*
X116940501Y-80253055D01*
X116943373Y-80283698D01*
X116943373Y-80283700D01*
X116943374Y-80283701D01*
X116964181Y-80343165D01*
X116976855Y-80379383D01*
X116982500Y-80412609D01*
X116982500Y-82339335D01*
X116982499Y-82339361D01*
X116982499Y-82483695D01*
X117009848Y-82621194D01*
X117009848Y-82621195D01*
X117025121Y-82658065D01*
X117063497Y-82750713D01*
X117063498Y-82750716D01*
X117063499Y-82750717D01*
X117138513Y-82862984D01*
X117141387Y-82867284D01*
X117244025Y-82969922D01*
X117244035Y-82969931D01*
X118287182Y-84013078D01*
X118287185Y-84013082D01*
X118386316Y-84112213D01*
X118502882Y-84190100D01*
X118585256Y-84224220D01*
X118632403Y-84243749D01*
X118769902Y-84271100D01*
X118769903Y-84271100D01*
X118915054Y-84271100D01*
X118915074Y-84271099D01*
X123129513Y-84271099D01*
X123188644Y-84290312D01*
X123200648Y-84300564D01*
X125507043Y-86606958D01*
X125507064Y-86606981D01*
X125510566Y-86610483D01*
X125609697Y-86709614D01*
X125726263Y-86787501D01*
X125741977Y-86794009D01*
X125764200Y-86803215D01*
X125855785Y-86841151D01*
X125993284Y-86868501D01*
X125993285Y-86868501D01*
X126138435Y-86868501D01*
X126138455Y-86868500D01*
X135408525Y-86868500D01*
X135408545Y-86868501D01*
X135413504Y-86868501D01*
X135553695Y-86868501D01*
X135553696Y-86868501D01*
X135691195Y-86841151D01*
X135755954Y-86814326D01*
X135755955Y-86814326D01*
X135782780Y-86803214D01*
X135820717Y-86787501D01*
X135937283Y-86709614D01*
X136036414Y-86610483D01*
X136036415Y-86610481D01*
X136042141Y-86604755D01*
X136042147Y-86604748D01*
X136581948Y-86064947D01*
X136581955Y-86064941D01*
X136587681Y-86059215D01*
X136587683Y-86059214D01*
X136686814Y-85960083D01*
X136764701Y-85843517D01*
X136780414Y-85805580D01*
X136818351Y-85713995D01*
X136845701Y-85576496D01*
X136845701Y-85482300D01*
X136864914Y-85423169D01*
X136915214Y-85386624D01*
X136946301Y-85381700D01*
X137004063Y-85381700D01*
X137004064Y-85381700D01*
X137063480Y-85369881D01*
X137130860Y-85324860D01*
X137175881Y-85257480D01*
X137187700Y-85198064D01*
X137187700Y-84224219D01*
X137620300Y-84224219D01*
X137620300Y-84431779D01*
X137660792Y-84635351D01*
X137740222Y-84827110D01*
X137740226Y-84827118D01*
X137855536Y-84999692D01*
X138002307Y-85146463D01*
X138174881Y-85261773D01*
X138174883Y-85261774D01*
X138174886Y-85261776D01*
X138366647Y-85341207D01*
X138570220Y-85381700D01*
X138570221Y-85381700D01*
X138777779Y-85381700D01*
X138777780Y-85381700D01*
X138981353Y-85341207D01*
X139173114Y-85261776D01*
X139345694Y-85146462D01*
X139492462Y-84999694D01*
X139607776Y-84827114D01*
X139687207Y-84635353D01*
X139727700Y-84431780D01*
X139727700Y-84224220D01*
X139687207Y-84020647D01*
X139607776Y-83828886D01*
X139492462Y-83656306D01*
X139345694Y-83509538D01*
X139345692Y-83509536D01*
X139173118Y-83394226D01*
X139173110Y-83394222D01*
X139107312Y-83366967D01*
X138981353Y-83314793D01*
X138981349Y-83314792D01*
X138981352Y-83314792D01*
X138818272Y-83282354D01*
X138777780Y-83274300D01*
X138570220Y-83274300D01*
X138529728Y-83282354D01*
X138366648Y-83314792D01*
X138174889Y-83394222D01*
X138174881Y-83394226D01*
X138002307Y-83509536D01*
X138002306Y-83509538D01*
X137855538Y-83656306D01*
X137855536Y-83656307D01*
X137740226Y-83828881D01*
X137740222Y-83828889D01*
X137660792Y-84020648D01*
X137620300Y-84224219D01*
X137187700Y-84224219D01*
X137187700Y-83457936D01*
X137175881Y-83398520D01*
X137130860Y-83331140D01*
X137063480Y-83286119D01*
X137063479Y-83286118D01*
X137015882Y-83276650D01*
X137004064Y-83274300D01*
X135263936Y-83274300D01*
X135254078Y-83276260D01*
X135204520Y-83286118D01*
X135137140Y-83331140D01*
X135092118Y-83398520D01*
X135080300Y-83457936D01*
X135080300Y-85198063D01*
X135092118Y-85257479D01*
X135092119Y-85257480D01*
X135112919Y-85288610D01*
X135129795Y-85348449D01*
X135108276Y-85406781D01*
X135056580Y-85441323D01*
X135029273Y-85445100D01*
X126399845Y-85445100D01*
X126340714Y-85425887D01*
X126328710Y-85415635D01*
X125184175Y-84271100D01*
X124022310Y-83109234D01*
X124022306Y-83109229D01*
X123919663Y-83006586D01*
X123803095Y-82928697D01*
X123803092Y-82928696D01*
X123738335Y-82901873D01*
X123673574Y-82875048D01*
X123536075Y-82847698D01*
X123395883Y-82847698D01*
X123390924Y-82847698D01*
X123390904Y-82847699D01*
X119176465Y-82847699D01*
X119117334Y-82828486D01*
X119105330Y-82818234D01*
X118435365Y-82148269D01*
X118407139Y-82092871D01*
X118405900Y-82077134D01*
X118405900Y-80412609D01*
X118411545Y-80379383D01*
X118445026Y-80283701D01*
X118447900Y-80253053D01*
X118447899Y-79193748D01*
X118445026Y-79163099D01*
X118410114Y-79063325D01*
X118408719Y-79001167D01*
X118444127Y-78950060D01*
X118502812Y-78929525D01*
X118505069Y-78929500D01*
X118883331Y-78929500D01*
X118942462Y-78948713D01*
X118979007Y-78999013D01*
X118979007Y-79061187D01*
X118978286Y-79063325D01*
X118943374Y-79163099D01*
X118940501Y-79193744D01*
X118940500Y-79193752D01*
X118940500Y-80253044D01*
X118940501Y-80253055D01*
X118943373Y-80283698D01*
X118943373Y-80283700D01*
X118943374Y-80283701D01*
X118964181Y-80343165D01*
X118976855Y-80379383D01*
X118982500Y-80412609D01*
X118982500Y-81867495D01*
X119009850Y-82004997D01*
X119063497Y-82134513D01*
X119063498Y-82134516D01*
X119063499Y-82134517D01*
X119141386Y-82251083D01*
X119240517Y-82350214D01*
X119357083Y-82428101D01*
X119421844Y-82454925D01*
X119486602Y-82481749D01*
X119486603Y-82481749D01*
X119486605Y-82481750D01*
X119624104Y-82509100D01*
X119624105Y-82509100D01*
X119764295Y-82509100D01*
X119764296Y-82509100D01*
X119901795Y-82481750D01*
X120031317Y-82428101D01*
X120147883Y-82350214D01*
X120247014Y-82251083D01*
X120324901Y-82134517D01*
X120378550Y-82004995D01*
X120405900Y-81867496D01*
X120405900Y-80917936D01*
X132550300Y-80917936D01*
X132550300Y-82658063D01*
X132562118Y-82717479D01*
X132562119Y-82717480D01*
X132607140Y-82784860D01*
X132674520Y-82829881D01*
X132733936Y-82841700D01*
X132733937Y-82841700D01*
X134474063Y-82841700D01*
X134474064Y-82841700D01*
X134533480Y-82829881D01*
X134600860Y-82784860D01*
X134645881Y-82717480D01*
X134657700Y-82658064D01*
X134657700Y-80917936D01*
X134645881Y-80858520D01*
X134600860Y-80791140D01*
X134533480Y-80746119D01*
X134533479Y-80746118D01*
X134485882Y-80736650D01*
X134474064Y-80734300D01*
X132733936Y-80734300D01*
X132724078Y-80736260D01*
X132674520Y-80746118D01*
X132607140Y-80791140D01*
X132562118Y-80858520D01*
X132550300Y-80917936D01*
X120405900Y-80917936D01*
X120405900Y-80701904D01*
X120405900Y-80412609D01*
X120411545Y-80379383D01*
X120445026Y-80283701D01*
X120447900Y-80253053D01*
X120447899Y-79193748D01*
X120445026Y-79163099D01*
X120410114Y-79063325D01*
X120408719Y-79001167D01*
X120444127Y-78950060D01*
X120502812Y-78929525D01*
X120505069Y-78929500D01*
X154177131Y-78929500D01*
X154236262Y-78948713D01*
X154272807Y-78999013D01*
X154272807Y-79061187D01*
X154272086Y-79063325D01*
X154237174Y-79163099D01*
X154234301Y-79193744D01*
X154234300Y-79193752D01*
X154234300Y-80253044D01*
X154234301Y-80253055D01*
X154237173Y-80283698D01*
X154282346Y-80412795D01*
X154359300Y-80517064D01*
X154363562Y-80522838D01*
X154473605Y-80604054D01*
X154602699Y-80649226D01*
X154633347Y-80652100D01*
X155342652Y-80652099D01*
X155373301Y-80649226D01*
X155502395Y-80604054D01*
X155612438Y-80522838D01*
X155693654Y-80412795D01*
X155738826Y-80283701D01*
X155741700Y-80253053D01*
X155741699Y-79193748D01*
X155738826Y-79163099D01*
X155703914Y-79063325D01*
X155702519Y-79001167D01*
X155737927Y-78950060D01*
X155796612Y-78929525D01*
X155798869Y-78929500D01*
X156177131Y-78929500D01*
X156236262Y-78948713D01*
X156272807Y-78999013D01*
X156272807Y-79061187D01*
X156272086Y-79063325D01*
X156237174Y-79163099D01*
X156234301Y-79193744D01*
X156234300Y-79193752D01*
X156234300Y-80253044D01*
X156234301Y-80253055D01*
X156237173Y-80283698D01*
X156282346Y-80412795D01*
X156359300Y-80517064D01*
X156363562Y-80522838D01*
X156473605Y-80604054D01*
X156602699Y-80649226D01*
X156633347Y-80652100D01*
X157270532Y-80652099D01*
X157278252Y-80654607D01*
X157286269Y-80653338D01*
X157307257Y-80664032D01*
X157329663Y-80671312D01*
X157341667Y-80681564D01*
X157429835Y-80769732D01*
X157458061Y-80825130D01*
X157459300Y-80840867D01*
X157459300Y-81146335D01*
X157440087Y-81205466D01*
X157429835Y-81217470D01*
X156850490Y-81796815D01*
X156795092Y-81825041D01*
X156779355Y-81826280D01*
X153278445Y-81826280D01*
X153219314Y-81807067D01*
X153207310Y-81796815D01*
X150771072Y-79360577D01*
X150701823Y-79320596D01*
X150701817Y-79320593D01*
X150624587Y-79299901D01*
X150624582Y-79299900D01*
X150624581Y-79299900D01*
X137872385Y-79299900D01*
X137792418Y-79299900D01*
X137792415Y-79299900D01*
X137745956Y-79312349D01*
X137730469Y-79316499D01*
X137720773Y-79319096D01*
X137715177Y-79320596D01*
X137715174Y-79320597D01*
X137645927Y-79360577D01*
X137645926Y-79360579D01*
X137589379Y-79417126D01*
X136988373Y-80018131D01*
X136945976Y-80060528D01*
X136905995Y-80129777D01*
X136905992Y-80129783D01*
X136885300Y-80207013D01*
X136885299Y-80207021D01*
X136885299Y-80575533D01*
X136866086Y-80634664D01*
X136855834Y-80646668D01*
X136694296Y-80808205D01*
X136638898Y-80836431D01*
X136584663Y-80830012D01*
X136468112Y-80781735D01*
X136451353Y-80774793D01*
X136451351Y-80774792D01*
X136451352Y-80774792D01*
X136288272Y-80742354D01*
X136247780Y-80734300D01*
X136040220Y-80734300D01*
X135999728Y-80742354D01*
X135836648Y-80774792D01*
X135644889Y-80854222D01*
X135644881Y-80854226D01*
X135472307Y-80969536D01*
X135472306Y-80969538D01*
X135325538Y-81116306D01*
X135325536Y-81116307D01*
X135210226Y-81288881D01*
X135210222Y-81288889D01*
X135130792Y-81480648D01*
X135090300Y-81684220D01*
X135090300Y-81891779D01*
X135130792Y-82095351D01*
X135210222Y-82287110D01*
X135210226Y-82287118D01*
X135325536Y-82459692D01*
X135472307Y-82606463D01*
X135644881Y-82721773D01*
X135644883Y-82721774D01*
X135644886Y-82721776D01*
X135836647Y-82801207D01*
X136040220Y-82841700D01*
X136040221Y-82841700D01*
X136247779Y-82841700D01*
X136247780Y-82841700D01*
X136451353Y-82801207D01*
X136643114Y-82721776D01*
X136815694Y-82606462D01*
X136962462Y-82459694D01*
X137077776Y-82287114D01*
X137157207Y-82095353D01*
X137197700Y-81891780D01*
X137197700Y-81684220D01*
X137157207Y-81480647D01*
X137101985Y-81347332D01*
X137097107Y-81285353D01*
X137123791Y-81237704D01*
X137342866Y-81018629D01*
X137398262Y-80990405D01*
X137459670Y-81000131D01*
X137485134Y-81018631D01*
X137590140Y-81123636D01*
X137704205Y-81237702D01*
X137732431Y-81293098D01*
X137726012Y-81347334D01*
X137670791Y-81480648D01*
X137630299Y-81684220D01*
X137630299Y-81891779D01*
X137670791Y-82095351D01*
X137750221Y-82287110D01*
X137750225Y-82287118D01*
X137865535Y-82459692D01*
X138012306Y-82606463D01*
X138184880Y-82721773D01*
X138184882Y-82721774D01*
X138184885Y-82721776D01*
X138376646Y-82801207D01*
X138580219Y-82841700D01*
X138580220Y-82841700D01*
X138787778Y-82841700D01*
X138787779Y-82841700D01*
X138991352Y-82801207D01*
X139183113Y-82721776D01*
X139355693Y-82606462D01*
X139502461Y-82459694D01*
X139617775Y-82287114D01*
X139697206Y-82095353D01*
X139737699Y-81891780D01*
X139737699Y-81684220D01*
X139697206Y-81480647D01*
X139617775Y-81288886D01*
X139615414Y-81285353D01*
X139502462Y-81116307D01*
X139355691Y-80969536D01*
X139183117Y-80854226D01*
X139183109Y-80854222D01*
X139112872Y-80825129D01*
X138991352Y-80774793D01*
X138991348Y-80774792D01*
X138991351Y-80774792D01*
X138828271Y-80742354D01*
X138787779Y-80734300D01*
X138580219Y-80734300D01*
X138539727Y-80742354D01*
X138376647Y-80774792D01*
X138243335Y-80830012D01*
X138181352Y-80834890D01*
X138133702Y-80808205D01*
X137984831Y-80659334D01*
X137956605Y-80603936D01*
X137966331Y-80542528D01*
X137984831Y-80517064D01*
X138158730Y-80343165D01*
X138214128Y-80314939D01*
X138229865Y-80313700D01*
X150187135Y-80313700D01*
X150246266Y-80332913D01*
X150258270Y-80343165D01*
X152738107Y-82823002D01*
X152807355Y-82862983D01*
X152807357Y-82862983D01*
X152807358Y-82862984D01*
X152884599Y-82883681D01*
X152970727Y-82883681D01*
X152970743Y-82883680D01*
X157173200Y-82883680D01*
X157173201Y-82883680D01*
X157205417Y-82875048D01*
X157250437Y-82862986D01*
X157250439Y-82862984D01*
X157250442Y-82862984D01*
X157319694Y-82823001D01*
X158391193Y-81751499D01*
X158391197Y-81751497D01*
X158399474Y-81743219D01*
X158399476Y-81743219D01*
X158456021Y-81686674D01*
X158496004Y-81617422D01*
X158496004Y-81617419D01*
X158496006Y-81617417D01*
X158512241Y-81556825D01*
X158512241Y-81556823D01*
X158516699Y-81540184D01*
X158516700Y-81540182D01*
X158516700Y-81460215D01*
X158516700Y-80840866D01*
X158519208Y-80833145D01*
X158517939Y-80825129D01*
X158528633Y-80804140D01*
X158535913Y-80781735D01*
X158546160Y-80769736D01*
X158634332Y-80681563D01*
X158689730Y-80653338D01*
X158705467Y-80652099D01*
X159342644Y-80652099D01*
X159342652Y-80652099D01*
X159373301Y-80649226D01*
X159502395Y-80604054D01*
X159612438Y-80522838D01*
X159693654Y-80412795D01*
X159738826Y-80283701D01*
X159741700Y-80253053D01*
X159741699Y-79193748D01*
X159738826Y-79163099D01*
X159703914Y-79063325D01*
X159702519Y-79001167D01*
X159737927Y-78950060D01*
X159796612Y-78929525D01*
X159798869Y-78929500D01*
X164992300Y-78929500D01*
X165051431Y-78948713D01*
X165087976Y-78999013D01*
X165092900Y-79030100D01*
X165092900Y-87085900D01*
X165073687Y-87145031D01*
X165023387Y-87181576D01*
X164992300Y-87186500D01*
X113848900Y-87186500D01*
X113789769Y-87167287D01*
X113753224Y-87116987D01*
X113748300Y-87085900D01*
X113748300Y-79030100D01*
X113767513Y-78970969D01*
X113817813Y-78934424D01*
X113848900Y-78929500D01*
X116883331Y-78929500D01*
X116942462Y-78948713D01*
G37*
%TD.AperFunction*%
%TD*%
M02*
