%TF.GenerationSoftware,KiCad,Pcbnew,9.0.1*%
%TF.CreationDate,2025-06-19T14:55:28-04:00*%
%TF.ProjectId,Header,48656164-6572-42e6-9b69-6361645f7063,rev?*%
%TF.SameCoordinates,Original*%
%TF.FileFunction,Legend,Top*%
%TF.FilePolarity,Positive*%
%FSLAX46Y46*%
G04 Gerber Fmt 4.6, Leading zero omitted, Abs format (unit mm)*
G04 Created by KiCad (PCBNEW 9.0.1) date 2025-06-19 14:55:28*
%MOMM*%
%LPD*%
G01*
G04 APERTURE LIST*
%ADD10C,0.203200*%
%ADD11C,0.120000*%
%ADD12C,0.076200*%
G04 APERTURE END LIST*
D10*
X143275912Y-84716392D02*
X141824484Y-84716392D01*
X132963513Y-84690992D02*
X131512085Y-84690992D01*
X132237799Y-83965277D02*
X132237799Y-85416706D01*
D11*
%TO.C,J1*%
X142604000Y-83167999D02*
X142604000Y-80408001D01*
X134874000Y-83168000D02*
X142604000Y-83167999D01*
X134874000Y-83168000D02*
X134874000Y-80408000D01*
X134874000Y-80408000D02*
X142604000Y-80408001D01*
X133604000Y-83167999D02*
X132224000Y-83168000D01*
X132224000Y-83168000D02*
X132224001Y-81788000D01*
%TO.C,J2*%
X140054000Y-85708000D02*
X140054000Y-82948000D01*
X137404000Y-85708000D02*
X140054000Y-85708000D01*
X137404000Y-85708000D02*
X137404000Y-82948000D01*
X137404000Y-82948000D02*
X140054000Y-82948000D01*
X136134000Y-85707999D02*
X134754000Y-85708000D01*
X134754000Y-85708000D02*
X134754001Y-84328000D01*
D12*
%TO.C,H7*%
X129914001Y-84558000D02*
X129914000Y-81558000D01*
X131414000Y-80058000D02*
X143414000Y-80058000D01*
X143414000Y-86058000D02*
X131414000Y-86057999D01*
X144914000Y-81558000D02*
X144914000Y-84558000D01*
X129914000Y-81558000D02*
G75*
G02*
X131414000Y-80058000I1500001J-1D01*
G01*
X131414000Y-86058000D02*
G75*
G02*
X129914000Y-84558000I1J1500001D01*
G01*
X143414000Y-80058000D02*
G75*
G02*
X144914000Y-81558000I0J-1500000D01*
G01*
X144914000Y-84558000D02*
G75*
G02*
X143414000Y-86058000I-1500000J0D01*
G01*
%TD*%
M02*
