%TF.GenerationSoftware,KiCad,Pcbnew,9.0.1*%
%TF.CreationDate,2025-06-19T14:55:28-04:00*%
%TF.ProjectId,Header,48656164-6572-42e6-9b69-6361645f7063,rev?*%
%TF.SameCoordinates,Original*%
%TF.FileFunction,Copper,L1,Top*%
%TF.FilePolarity,Positive*%
%FSLAX46Y46*%
G04 Gerber Fmt 4.6, Leading zero omitted, Abs format (unit mm)*
G04 Created by KiCad (PCBNEW 9.0.1) date 2025-06-19 14:55:28*
%MOMM*%
%LPD*%
G01*
G04 APERTURE LIST*
%TA.AperFunction,ComponentPad*%
%ADD10R,1.700000X1.700000*%
%TD*%
%TA.AperFunction,ComponentPad*%
%ADD11C,1.700000*%
%TD*%
%TA.AperFunction,ComponentPad*%
%ADD12C,3.800000*%
%TD*%
%TA.AperFunction,ViaPad*%
%ADD13C,0.609600*%
%TD*%
%TA.AperFunction,Conductor*%
%ADD14C,1.016000*%
%TD*%
%TA.AperFunction,Conductor*%
%ADD15C,0.635000*%
%TD*%
G04 APERTURE END LIST*
D10*
%TO.P,J1,1,Pin_1*%
%TO.N,VBUS*%
X133604000Y-81788000D03*
D11*
%TO.P,J1,2,Pin_2*%
%TO.N,/D+*%
X136144000Y-81788000D03*
%TO.P,J1,3,Pin_3*%
%TO.N,/D-*%
X138683999Y-81788000D03*
%TO.P,J1,4,Pin_4*%
%TO.N,GND*%
X141224000Y-81788000D03*
%TD*%
D10*
%TO.P,J2,1,Pin_1*%
%TO.N,SYSTEM_VDD*%
X136134000Y-84328000D03*
D11*
%TO.P,J2,2,Pin_2*%
%TO.N,SYSTEM_VSS*%
X138674000Y-84328000D03*
%TD*%
D12*
%TO.P,H7,1,1*%
%TO.N,GND*%
X126914000Y-83058000D03*
X147914000Y-83058000D03*
%TD*%
D13*
%TO.N,GND*%
X114799200Y-85718399D03*
X114799200Y-84836000D03*
%TO.N,SYSTEM_VSS*%
X119694200Y-81797400D03*
X119694200Y-80772000D03*
%TO.N,VBUS*%
X154988000Y-79723400D03*
%TO.N,GND*%
X160985200Y-81203800D03*
%TD*%
D14*
%TO.N,SYSTEM_VSS*%
X119694200Y-81797400D02*
X119694200Y-84312000D01*
X121539000Y-86156800D02*
X137998200Y-86156800D01*
X119694200Y-84312000D02*
X121539000Y-86156800D01*
X137998200Y-86156800D02*
X138674000Y-85481000D01*
X138674000Y-85481000D02*
X138674000Y-84328000D01*
X119694200Y-81797400D02*
X119694200Y-80772000D01*
D15*
%TO.N,VBUS*%
X154988000Y-79723400D02*
X135668600Y-79723400D01*
X135668600Y-79723400D02*
X133604000Y-81788000D01*
%TD*%
%TA.AperFunction,Conductor*%
%TO.N,GND*%
G36*
X165051431Y-78948713D02*
G01*
X165087976Y-78999013D01*
X165092900Y-79030100D01*
X165092900Y-87085900D01*
X165073687Y-87145031D01*
X165023387Y-87181576D01*
X164992300Y-87186500D01*
X113848900Y-87186500D01*
X113789769Y-87167287D01*
X113753224Y-87116987D01*
X113748300Y-87085900D01*
X113748300Y-84237761D01*
X118982499Y-84237761D01*
X118982499Y-84241904D01*
X118982499Y-84382096D01*
X118992382Y-84431780D01*
X119009849Y-84519595D01*
X119036674Y-84584355D01*
X119036674Y-84584356D01*
X119063497Y-84649113D01*
X119063498Y-84649116D01*
X119141387Y-84765684D01*
X119244025Y-84868322D01*
X119244035Y-84868331D01*
X120986183Y-86610479D01*
X120986186Y-86610483D01*
X121085317Y-86709614D01*
X121201883Y-86787501D01*
X121228708Y-86798611D01*
X121266645Y-86814326D01*
X121266646Y-86814326D01*
X121331405Y-86841151D01*
X121468904Y-86868501D01*
X121468905Y-86868501D01*
X121614055Y-86868501D01*
X121614075Y-86868500D01*
X137923125Y-86868500D01*
X137923145Y-86868501D01*
X137928104Y-86868501D01*
X138068295Y-86868501D01*
X138068296Y-86868501D01*
X138205795Y-86841151D01*
X138270554Y-86814326D01*
X138270555Y-86814326D01*
X138297380Y-86803214D01*
X138335317Y-86787501D01*
X138451883Y-86709614D01*
X138551014Y-86610483D01*
X138551015Y-86610481D01*
X138556741Y-86604755D01*
X138556747Y-86604748D01*
X139121948Y-86039547D01*
X139121955Y-86039541D01*
X139127681Y-86033815D01*
X139127683Y-86033814D01*
X139226814Y-85934683D01*
X139304701Y-85818117D01*
X139320414Y-85780180D01*
X139358351Y-85688595D01*
X139385701Y-85551096D01*
X139385701Y-85410903D01*
X139385701Y-85406760D01*
X139385700Y-85406734D01*
X139385700Y-85148126D01*
X139404913Y-85088995D01*
X139415165Y-85076991D01*
X139492462Y-84999694D01*
X139492463Y-84999692D01*
X139580236Y-84868331D01*
X139607776Y-84827114D01*
X139687207Y-84635353D01*
X139727700Y-84431780D01*
X139727700Y-84224220D01*
X139687207Y-84020647D01*
X139607776Y-83828886D01*
X139492462Y-83656306D01*
X139345694Y-83509538D01*
X139345692Y-83509536D01*
X139173118Y-83394226D01*
X139173110Y-83394222D01*
X139107312Y-83366967D01*
X138981353Y-83314793D01*
X138981349Y-83314792D01*
X138981352Y-83314792D01*
X138818272Y-83282354D01*
X138777780Y-83274300D01*
X138570220Y-83274300D01*
X138529728Y-83282354D01*
X138366648Y-83314792D01*
X138174889Y-83394222D01*
X138174881Y-83394226D01*
X138002307Y-83509536D01*
X138002306Y-83509538D01*
X137855538Y-83656306D01*
X137855536Y-83656307D01*
X137740226Y-83828881D01*
X137740222Y-83828889D01*
X137660792Y-84020648D01*
X137620300Y-84224220D01*
X137620300Y-84431779D01*
X137660792Y-84635351D01*
X137740222Y-84827110D01*
X137740226Y-84827118D01*
X137855536Y-84999692D01*
X137931039Y-85075195D01*
X137959265Y-85130593D01*
X137949539Y-85192001D01*
X137931039Y-85217465D01*
X137732869Y-85415635D01*
X137677471Y-85443861D01*
X137661734Y-85445100D01*
X137238727Y-85445100D01*
X137179596Y-85425887D01*
X137143051Y-85375587D01*
X137143051Y-85313413D01*
X137155079Y-85288612D01*
X137175881Y-85257480D01*
X137187700Y-85198064D01*
X137187700Y-83457936D01*
X137175881Y-83398520D01*
X137130860Y-83331140D01*
X137063480Y-83286119D01*
X137063479Y-83286118D01*
X137015882Y-83276650D01*
X137004064Y-83274300D01*
X135263936Y-83274300D01*
X135254078Y-83276260D01*
X135204520Y-83286118D01*
X135137140Y-83331140D01*
X135092118Y-83398520D01*
X135080300Y-83457936D01*
X135080300Y-85198063D01*
X135092118Y-85257479D01*
X135092119Y-85257480D01*
X135112919Y-85288610D01*
X135129795Y-85348449D01*
X135108276Y-85406781D01*
X135056580Y-85441323D01*
X135029273Y-85445100D01*
X121875466Y-85445100D01*
X121816335Y-85425887D01*
X121804331Y-85415635D01*
X120435365Y-84046669D01*
X120407139Y-83991271D01*
X120405900Y-83975534D01*
X120405900Y-80917936D01*
X132550300Y-80917936D01*
X132550300Y-82658063D01*
X132562118Y-82717479D01*
X132562119Y-82717480D01*
X132607140Y-82784860D01*
X132674520Y-82829881D01*
X132733936Y-82841700D01*
X132733937Y-82841700D01*
X134474063Y-82841700D01*
X134474064Y-82841700D01*
X134533480Y-82829881D01*
X134600860Y-82784860D01*
X134645881Y-82717480D01*
X134657700Y-82658064D01*
X134657700Y-81684220D01*
X135090300Y-81684220D01*
X135090300Y-81891779D01*
X135130792Y-82095351D01*
X135210222Y-82287110D01*
X135210226Y-82287118D01*
X135325536Y-82459692D01*
X135472307Y-82606463D01*
X135644881Y-82721773D01*
X135644883Y-82721774D01*
X135644886Y-82721776D01*
X135836647Y-82801207D01*
X136040220Y-82841700D01*
X136040221Y-82841700D01*
X136247779Y-82841700D01*
X136247780Y-82841700D01*
X136451353Y-82801207D01*
X136643114Y-82721776D01*
X136815694Y-82606462D01*
X136962462Y-82459694D01*
X137077776Y-82287114D01*
X137157207Y-82095353D01*
X137197700Y-81891780D01*
X137197700Y-81684220D01*
X137630299Y-81684220D01*
X137630299Y-81891779D01*
X137670791Y-82095351D01*
X137750221Y-82287110D01*
X137750225Y-82287118D01*
X137865535Y-82459692D01*
X138012306Y-82606463D01*
X138184880Y-82721773D01*
X138184882Y-82721774D01*
X138184885Y-82721776D01*
X138376646Y-82801207D01*
X138580219Y-82841700D01*
X138580220Y-82841700D01*
X138787778Y-82841700D01*
X138787779Y-82841700D01*
X138991352Y-82801207D01*
X139183113Y-82721776D01*
X139355693Y-82606462D01*
X139502461Y-82459694D01*
X139617775Y-82287114D01*
X139697206Y-82095353D01*
X139737699Y-81891780D01*
X139737699Y-81684220D01*
X139697206Y-81480647D01*
X139617775Y-81288886D01*
X139502461Y-81116306D01*
X139355693Y-80969538D01*
X139355691Y-80969536D01*
X139183117Y-80854226D01*
X139183109Y-80854222D01*
X139117311Y-80826967D01*
X138991352Y-80774793D01*
X138991348Y-80774792D01*
X138991351Y-80774792D01*
X138828271Y-80742354D01*
X138787779Y-80734300D01*
X138580219Y-80734300D01*
X138539727Y-80742354D01*
X138376647Y-80774792D01*
X138184888Y-80854222D01*
X138184880Y-80854226D01*
X138012306Y-80969536D01*
X138012305Y-80969538D01*
X137865537Y-81116306D01*
X137865535Y-81116307D01*
X137750225Y-81288881D01*
X137750221Y-81288889D01*
X137670791Y-81480648D01*
X137630299Y-81684220D01*
X137197700Y-81684220D01*
X137157207Y-81480647D01*
X137077776Y-81288886D01*
X136962462Y-81116306D01*
X136815694Y-80969538D01*
X136815692Y-80969536D01*
X136643118Y-80854226D01*
X136643110Y-80854222D01*
X136577312Y-80826967D01*
X136451353Y-80774793D01*
X136451349Y-80774792D01*
X136451352Y-80774792D01*
X136288272Y-80742354D01*
X136247780Y-80734300D01*
X136040220Y-80734300D01*
X135999728Y-80742354D01*
X135836648Y-80774792D01*
X135644889Y-80854222D01*
X135644881Y-80854226D01*
X135472307Y-80969536D01*
X135472306Y-80969538D01*
X135325538Y-81116306D01*
X135325536Y-81116307D01*
X135210226Y-81288881D01*
X135210222Y-81288889D01*
X135130792Y-81480648D01*
X135090300Y-81684220D01*
X134657700Y-81684220D01*
X134657700Y-81513058D01*
X134676913Y-81453927D01*
X134687165Y-81441923D01*
X135855023Y-80274065D01*
X135910421Y-80245839D01*
X135926158Y-80244600D01*
X155056615Y-80244600D01*
X155056617Y-80244600D01*
X155189172Y-80209082D01*
X155189173Y-80209082D01*
X155189173Y-80209081D01*
X155189176Y-80209081D01*
X155308024Y-80140463D01*
X155405063Y-80043424D01*
X155473681Y-79924576D01*
X155509200Y-79792017D01*
X155509200Y-79654783D01*
X155473681Y-79522224D01*
X155405063Y-79403376D01*
X155308024Y-79306337D01*
X155189176Y-79237719D01*
X155189173Y-79237717D01*
X155056621Y-79202200D01*
X155056617Y-79202200D01*
X135599983Y-79202200D01*
X135599978Y-79202200D01*
X135467427Y-79237717D01*
X135467426Y-79237717D01*
X135348572Y-79306339D01*
X133950076Y-80704835D01*
X133894678Y-80733061D01*
X133878941Y-80734300D01*
X132733936Y-80734300D01*
X132724078Y-80736260D01*
X132674520Y-80746118D01*
X132607140Y-80791140D01*
X132562118Y-80858520D01*
X132550300Y-80917936D01*
X120405900Y-80917936D01*
X120405900Y-80701904D01*
X120378549Y-80564402D01*
X120324902Y-80434886D01*
X120324901Y-80434883D01*
X120247014Y-80318317D01*
X120147883Y-80219186D01*
X120031317Y-80141299D01*
X120031318Y-80141299D01*
X120031316Y-80141298D01*
X120031313Y-80141297D01*
X119901797Y-80087650D01*
X119810129Y-80069416D01*
X119764296Y-80060300D01*
X119624104Y-80060300D01*
X119589729Y-80067137D01*
X119486602Y-80087650D01*
X119357086Y-80141297D01*
X119357083Y-80141298D01*
X119240515Y-80219187D01*
X119141387Y-80318315D01*
X119063498Y-80434883D01*
X119063497Y-80434886D01*
X119009850Y-80564402D01*
X118982500Y-80701904D01*
X118982500Y-84237735D01*
X118982499Y-84237761D01*
X113748300Y-84237761D01*
X113748300Y-79030100D01*
X113767513Y-78970969D01*
X113817813Y-78934424D01*
X113848900Y-78929500D01*
X164992300Y-78929500D01*
X165051431Y-78948713D01*
G37*
%TD.AperFunction*%
%TD*%
M02*
